<svg width="36" height="36" viewBox="0 0 36 36" fill="none" xmlns="http://www.w3.org/2000/svg">
<rect x="2" y="2" width="32" height="32" rx="16" fill="#F2EFEE"/>
<rect x="2" y="2" width="32" height="32" rx="16" stroke="#F8F6F5" stroke-width="4"/>
<path d="M20.0002 25.1668H16.0002C12.3802 25.1668 10.8335 23.6202 10.8335 20.0002V16.0002C10.8335 12.3802 12.3802 10.8335 16.0002 10.8335H19.3335C19.6068 10.8335 19.8335 11.0602 19.8335 11.3335C19.8335 11.6068 19.6068 11.8335 19.3335 11.8335H16.0002C12.9268 11.8335 11.8335 12.9268 11.8335 16.0002V20.0002C11.8335 23.0735 12.9268 24.1668 16.0002 24.1668H20.0002C23.0735 24.1668 24.1668 23.0735 24.1668 20.0002V16.6668C24.1668 16.3935 24.3935 16.1668 24.6668 16.1668C24.9402 16.1668 25.1668 16.3935 25.1668 16.6668V20.0002C25.1668 23.6202 23.6202 25.1668 20.0002 25.1668Z" fill="#585857"/>
<path d="M24.6668 17.1668H22.0002C19.7202 17.1668 18.8335 16.2802 18.8335 14.0002V11.3335C18.8335 11.1335 18.9535 10.9468 19.1402 10.8735C19.3268 10.7935 19.5402 10.8402 19.6868 10.9802L25.0202 16.3135C25.1602 16.4535 25.2068 16.6735 25.1268 16.8602C25.0468 17.0468 24.8668 17.1668 24.6668 17.1668ZM19.8335 12.5402V14.0002C19.8335 15.7202 20.2802 16.1668 22.0002 16.1668H23.4602L19.8335 12.5402Z" fill="#585857"/>
</svg>
