<svg width="48" height="48" viewBox="0 0 48 48" fill="none" xmlns="http://www.w3.org/2000/svg">
<rect width="48" height="48" rx="8" fill="#EFF6FA"/>
<path d="M22.8916 27.4418L20.7333 29.6002C20.2783 30.0552 19.555 30.0552 19.0883 29.6118C18.96 29.4835 18.8316 29.3668 18.7033 29.2385C17.5016 28.0252 16.4166 26.7535 15.4483 25.4235C14.4916 24.0935 13.7216 22.7635 13.1616 21.4452C12.6133 20.1152 12.3333 18.8435 12.3333 17.6302C12.3333 16.8368 12.4733 16.0785 12.7533 15.3785C13.0333 14.6668 13.4766 14.0135 14.095 13.4302C14.8416 12.6952 15.6583 12.3335 16.5216 12.3335C16.8483 12.3335 17.175 12.4035 17.4666 12.5435C17.77 12.6835 18.0383 12.8935 18.2483 13.1968L20.955 17.0118C21.165 17.3035 21.3166 17.5718 21.4216 17.8285C21.5266 18.0735 21.585 18.3185 21.585 18.5402C21.585 18.8202 21.5033 19.1002 21.34 19.3685C21.1883 19.6368 20.9666 19.9168 20.6866 20.1968L19.8 21.1185C19.6716 21.2468 19.6133 21.3985 19.6133 21.5852C19.6133 21.6785 19.625 21.7602 19.6483 21.8535C19.6833 21.9468 19.7183 22.0168 19.7416 22.0868C19.9516 22.4718 20.3133 22.9735 20.8266 23.5802C21.3516 24.1868 21.9116 24.8052 22.5183 25.4235C22.635 25.5402 22.7633 25.6568 22.88 25.7735C23.3466 26.2285 23.3583 26.9752 22.8916 27.4418Z" fill="#18CEAD"/>
<path d="M35.6317 31.3849C35.6317 31.7115 35.5733 32.0499 35.4567 32.3766C35.4217 32.4699 35.3867 32.5632 35.34 32.6565C35.1417 33.0766 34.885 33.4732 34.5467 33.8466C33.975 34.4766 33.345 34.9316 32.6333 35.2232C32.6217 35.2232 32.61 35.2349 32.5983 35.2349C31.91 35.5149 31.1633 35.6665 30.3583 35.6665C29.1683 35.6665 27.8967 35.3866 26.555 34.8149C25.2133 34.2432 23.8717 33.4732 22.5417 32.5049C22.0867 32.1666 21.6317 31.8282 21.2 31.4665L25.015 27.6515C25.3417 27.8965 25.6333 28.0832 25.8783 28.2115C25.9367 28.2349 26.0067 28.2699 26.0883 28.3049C26.1817 28.3399 26.275 28.3515 26.38 28.3515C26.5783 28.3515 26.73 28.2816 26.8583 28.1532L27.745 27.2782C28.0367 26.9866 28.3167 26.7649 28.585 26.6249C28.8533 26.4615 29.1217 26.3799 29.4133 26.3799C29.635 26.3799 29.8683 26.4265 30.125 26.5315C30.3817 26.6365 30.65 26.7882 30.9417 26.9866L34.8033 29.7282C35.1067 29.9382 35.3167 30.1832 35.445 30.4749C35.5617 30.7665 35.6317 31.0582 35.6317 31.3849Z" fill="#18CEAD"/>
</svg>
