<svg width="32" height="32" viewBox="0 0 32 32" fill="none" xmlns="http://www.w3.org/2000/svg">
<path d="M16.0007 17C11.774 17 8.33398 13.56 8.33398 9.33332C8.33398 5.10666 11.774 1.66666 16.0007 1.66666C20.2273 1.66666 23.6673 5.10666 23.6673 9.33332C23.6673 13.56 20.2273 17 16.0007 17ZM16.0007 3.66666C12.8807 3.66666 10.334 6.21332 10.334 9.33332C10.334 12.4533 12.8807 15 16.0007 15C19.1207 15 21.6673 12.4533 21.6673 9.33332C21.6673 6.21332 19.1207 3.66666 16.0007 3.66666Z" fill="#F28052"/>
<path d="M27.4535 30.3333C26.9069 30.3333 26.4535 29.88 26.4535 29.3333C26.4535 24.7333 21.7602 21 16.0002 21C10.2402 21 5.54688 24.7333 5.54688 29.3333C5.54688 29.88 5.09354 30.3333 4.54688 30.3333C4.00021 30.3333 3.54688 29.88 3.54688 29.3333C3.54688 23.64 9.13354 19 16.0002 19C22.8669 19 28.4535 23.64 28.4535 29.3333C28.4535 29.88 28.0002 30.3333 27.4535 30.3333Z" fill="#F28052"/>
</svg>
