<svg width="40" height="40" viewBox="0 0 40 40" fill="none" xmlns="http://www.w3.org/2000/svg">
<path d="M15.2001 4C11.0081 4 7.6001 7.408 7.6001 11.6C7.6001 15.712 10.8161 19.04 15.0081 19.184C15.1361 19.168 15.2641 19.168 15.3601 19.184C15.3921 19.184 15.4081 19.184 15.4401 19.184C15.4561 19.184 15.4561 19.184 15.4721 19.184C19.5681 19.04 22.7841 15.712 22.8001 11.6C22.8001 7.408 19.3921 4 15.2001 4Z" fill="#CFCECD"/>
<path d="M23.328 23.44C18.864 20.464 11.584 20.464 7.08804 23.44C5.05604 24.8 3.93604 26.64 3.93604 28.608C3.93604 30.576 5.05604 32.4 7.07204 33.744C9.31204 35.248 12.256 36 15.2 36C18.144 36 21.088 35.248 23.328 33.744C25.344 32.384 26.464 30.56 26.464 28.576C26.448 26.608 25.344 24.784 23.328 23.44Z" fill="#CFCECD"/>
<path d="M32.784 12.5436C33.04 15.6476 30.832 18.3676 27.776 18.7356C27.76 18.7356 27.76 18.7356 27.744 18.7356H27.696C27.6 18.7356 27.504 18.7356 27.424 18.7676C25.872 18.8476 24.448 18.3516 23.376 17.4396C25.024 15.9676 25.968 13.7596 25.776 11.3596C25.664 10.0636 25.216 8.87957 24.544 7.87157C25.152 7.56757 25.856 7.37557 26.576 7.31157C29.712 7.03957 32.512 9.37557 32.784 12.5436Z" fill="#CFCECD"/>
<path d="M35.9841 27.3435C35.8561 28.8955 34.8641 30.2395 33.2001 31.1515C31.6001 32.0315 29.5841 32.4475 27.5841 32.3995C28.7361 31.3595 29.4081 30.0635 29.5361 28.6875C29.6961 26.7035 28.7521 24.7995 26.8641 23.2795C25.7921 22.4315 24.5441 21.7595 23.1841 21.2635C26.7201 20.2395 31.1681 20.9275 33.9041 23.1355C35.3761 24.3195 36.1281 25.8075 35.9841 27.3435Z" fill="#CFCECD"/>
</svg>
