<svg width="48" height="48" viewBox="0 0 48 48" fill="none" xmlns="http://www.w3.org/2000/svg">
<rect width="48" height="48" rx="8" fill="#FAEFF7"/>
<path d="M27.325 14.6083V19.0416H25.575V14.6083C25.575 14.2933 25.295 14.1416 25.1084 14.1416C25.05 14.1416 24.9917 14.1533 24.9334 14.1766L15.6817 17.6649C15.0634 17.8983 14.6667 18.4816 14.6667 19.1466V19.9283C13.605 20.7216 12.9167 21.9933 12.9167 23.4283V19.1466C12.9167 17.7583 13.7684 16.5216 15.0634 16.0316L24.3267 12.5316C24.5834 12.4383 24.8517 12.3916 25.1084 12.3916C26.275 12.3916 27.325 13.3366 27.325 14.6083Z" fill="#BC16BF"/>
<path d="M35.0833 26.9168V28.0835C35.0833 28.3985 34.8383 28.6552 34.5117 28.6668H32.8083C32.19 28.6668 31.63 28.2118 31.5833 27.6052C31.5483 27.2435 31.6883 26.9052 31.9217 26.6718C32.1317 26.4502 32.4233 26.3335 32.7383 26.3335H34.5C34.8383 26.3452 35.0833 26.6018 35.0833 26.9168Z" fill="#BC16BF"/>
<path d="M32.7267 25.1082H33.9167C34.5584 25.1082 35.0834 24.5832 35.0834 23.9415V23.4282C35.0834 21.0132 33.1117 19.0415 30.6967 19.0415H17.3034C16.3117 19.0415 15.4017 19.3682 14.6667 19.9282C13.605 20.7215 12.9167 21.9932 12.9167 23.4282V31.2798C12.9167 33.6948 14.8884 35.6665 17.3034 35.6665H30.6967C33.1117 35.6665 35.0834 33.6948 35.0834 31.2798V31.0582C35.0834 30.4165 34.5584 29.8915 33.9167 29.8915H32.9017C31.7817 29.8915 30.7084 29.2032 30.4167 28.1182C30.1717 27.2315 30.4634 26.3798 31.0467 25.8082C31.4784 25.3648 32.0734 25.1082 32.7267 25.1082ZM26.3334 24.8748H18.1667C17.6884 24.8748 17.2917 24.4782 17.2917 23.9998C17.2917 23.5215 17.6884 23.1248 18.1667 23.1248H26.3334C26.8117 23.1248 27.2084 23.5215 27.2084 23.9998C27.2084 24.4782 26.8117 24.8748 26.3334 24.8748Z" fill="#BC16BF"/>
</svg>
