<svg width="36" height="36" viewBox="0 0 36 36" fill="none" xmlns="http://www.w3.org/2000/svg">
<rect x="2" y="2" width="32" height="32" rx="16" fill="#FBDBCD"/>
<rect x="2" y="2" width="32" height="32" rx="16" stroke="#FDEDE6" stroke-width="4"/>
<path d="M20.0007 25.1668H16.0007C12.3807 25.1668 10.834 23.6202 10.834 20.0002V16.0002C10.834 12.3802 12.3807 10.8335 16.0007 10.8335H19.334C19.6073 10.8335 19.834 11.0602 19.834 11.3335C19.834 11.6068 19.6073 11.8335 19.334 11.8335H16.0007C12.9273 11.8335 11.834 12.9268 11.834 16.0002V20.0002C11.834 23.0735 12.9273 24.1668 16.0007 24.1668H20.0007C23.074 24.1668 24.1673 23.0735 24.1673 20.0002V16.6668C24.1673 16.3935 24.394 16.1668 24.6673 16.1668C24.9407 16.1668 25.1673 16.3935 25.1673 16.6668V20.0002C25.1673 23.6202 23.6207 25.1668 20.0007 25.1668Z" fill="#EE5C20"/>
<path d="M24.6673 17.1668H22.0007C19.7207 17.1668 18.834 16.2802 18.834 14.0002V11.3335C18.834 11.1335 18.954 10.9468 19.1407 10.8735C19.3273 10.7935 19.5407 10.8402 19.6873 10.9802L25.0207 16.3135C25.1607 16.4535 25.2073 16.6735 25.1273 16.8602C25.0473 17.0468 24.8673 17.1668 24.6673 17.1668ZM19.834 12.5402V14.0002C19.834 15.7202 20.2807 16.1668 22.0007 16.1668H23.4607L19.834 12.5402Z" fill="#EE5C20"/>
</svg>
