<svg width="21" height="20" viewBox="0 0 21 20" fill="none" xmlns="http://www.w3.org/2000/svg">
<path d="M11.3333 9.79219C11.175 9.79219 11.0166 9.73385 10.8916 9.60885C10.65 9.36719 10.65 8.96719 10.8916 8.72552L17.725 1.89219C17.9666 1.65052 18.3666 1.65052 18.6083 1.89219C18.85 2.13385 18.85 2.53385 18.6083 2.77552L11.775 9.60885C11.65 9.73385 11.4916 9.79219 11.3333 9.79219Z" fill="white"/>
<path d="M18.8335 6.29102C18.4918 6.29102 18.2085 6.00768 18.2085 5.66602V2.29102H14.8335C14.4918 2.29102 14.2085 2.00768 14.2085 1.66602C14.2085 1.32435 14.4918 1.04102 14.8335 1.04102H18.8335C19.1752 1.04102 19.4585 1.32435 19.4585 1.66602V5.66602C19.4585 6.00768 19.1752 6.29102 18.8335 6.29102Z" fill="white"/>
<path d="M13 18.9577H8.00002C3.47502 18.9577 1.54169 17.0243 1.54169 12.4993V7.49935C1.54169 2.97435 3.47502 1.04102 8.00002 1.04102H9.66669C10.0084 1.04102 10.2917 1.32435 10.2917 1.66602C10.2917 2.00768 10.0084 2.29102 9.66669 2.29102H8.00002C4.15835 2.29102 2.79169 3.65768 2.79169 7.49935V12.4993C2.79169 16.341 4.15835 17.7077 8.00002 17.7077H13C16.8417 17.7077 18.2084 16.341 18.2084 12.4993V10.8327C18.2084 10.491 18.4917 10.2077 18.8334 10.2077C19.175 10.2077 19.4584 10.491 19.4584 10.8327V12.4993C19.4584 17.0243 17.525 18.9577 13 18.9577Z" fill="white"/>
</svg>
