<svg width="16" height="16" viewBox="0 0 16 16" fill="none" xmlns="http://www.w3.org/2000/svg">
<path d="M9.20012 7.29996C9.07345 7.29996 8.94678 7.25329 8.84678 7.15329C8.65345 6.95996 8.65345 6.63996 8.84678 6.44663L14.3134 0.979961C14.5068 0.786628 14.8268 0.786628 15.0201 0.979961C15.2134 1.17329 15.2134 1.49329 15.0201 1.68663L9.55345 7.15329C9.46012 7.24663 9.33345 7.29996 9.20012 7.29996Z" fill="#110D0C"/>
<path d="M11.8866 7.83328H8.66663C8.39329 7.83328 8.16663 7.60661 8.16663 7.33328V4.11328C8.16663 3.83995 8.39329 3.61328 8.66663 3.61328C8.93996 3.61328 9.16663 3.83995 9.16663 4.11328V6.83328H11.8866C12.16 6.83328 12.3866 7.05995 12.3866 7.33328C12.3866 7.60661 12.16 7.83328 11.8866 7.83328Z" fill="#110D0C"/>
<path d="M9.99998 15.1663H5.99998C2.37998 15.1663 0.833313 13.6197 0.833313 9.99967V5.99967C0.833313 2.37967 2.37998 0.833008 5.99998 0.833008H7.33331C7.60665 0.833008 7.83331 1.05967 7.83331 1.33301C7.83331 1.60634 7.60665 1.83301 7.33331 1.83301H5.99998C2.92665 1.83301 1.83331 2.92634 1.83331 5.99967V9.99967C1.83331 13.073 2.92665 14.1663 5.99998 14.1663H9.99998C13.0733 14.1663 14.1666 13.073 14.1666 9.99967V8.66634C14.1666 8.39301 14.3933 8.16634 14.6666 8.16634C14.94 8.16634 15.1666 8.39301 15.1666 8.66634V9.99967C15.1666 13.6197 13.62 15.1663 9.99998 15.1663Z" fill="#110D0C"/>
</svg>
