<svg width="30" height="30" viewBox="0 0 30 30" fill="none" xmlns="http://www.w3.org/2000/svg">
<path d="M23.604 8.56822C23.088 5.96422 21.156 4.82422 18.468 4.82422H7.932C4.764 4.82422 2.652 6.40822 2.652 10.1042V16.2842C2.652 18.9482 3.744 20.5082 5.544 21.1802C5.808 21.2762 6.096 21.3602 6.396 21.4082C6.876 21.5162 7.392 21.5642 7.932 21.5642H18.48C21.648 21.5642 23.76 19.9802 23.76 16.2842V10.1042C23.76 9.54022 23.712 9.03622 23.604 8.56822ZM7.236 15.0002C7.236 15.4922 6.828 15.9002 6.336 15.9002C5.844 15.9002 5.436 15.4922 5.436 15.0002V11.4002C5.436 10.9082 5.844 10.5002 6.336 10.5002C6.828 10.5002 7.236 10.9082 7.236 11.4002V15.0002ZM13.2 16.3682C11.448 16.3682 10.032 14.9522 10.032 13.2002C10.032 11.4482 11.448 10.0322 13.2 10.0322C14.952 10.0322 16.368 11.4482 16.368 13.2002C16.368 14.9522 14.952 16.3682 13.2 16.3682ZM20.952 15.0002C20.952 15.4922 20.544 15.9002 20.052 15.9002C19.56 15.9002 19.152 15.4922 19.152 15.0002V11.4002C19.152 10.9082 19.56 10.5002 20.052 10.5002C20.544 10.5002 20.952 10.9082 20.952 11.4002V15.0002Z" fill="#EE5C20"/>
<path d="M27.36 13.7041V19.8841C27.36 23.5801 25.248 25.1761 22.068 25.1761H11.532C10.632 25.1761 9.828 25.0441 9.132 24.7801C8.568 24.5761 8.076 24.2761 7.68 23.8921C7.464 23.6881 7.632 23.3641 7.932 23.3641H18.468C22.908 23.3641 25.548 20.7241 25.548 16.2961V10.1041C25.548 9.81614 25.872 9.63614 26.076 9.85214C26.892 10.7161 27.36 11.9761 27.36 13.7041Z" fill="#EE5C20"/>
</svg>
