<svg width="24" height="25" viewBox="0 0 24 25" fill="none" xmlns="http://www.w3.org/2000/svg">
<path d="M17 21.25H12C11.59 21.25 11.25 20.91 11.25 20.5C11.25 20.09 11.59 19.75 12 19.75H17C19.86 19.75 21.25 18.36 21.25 15.5V9.5C21.25 6.64 19.86 5.25 17 5.25H7C4.14 5.25 2.75 6.64 2.75 9.5V11.5C2.75 11.91 2.41 12.25 2 12.25C1.59 12.25 1.25 11.91 1.25 11.5V9.5C1.25 5.85 3.35 3.75 7 3.75H17C20.65 3.75 22.75 5.85 22.75 9.5V15.5C22.75 19.15 20.65 21.25 17 21.25Z" fill="#2BA3FD"/>
<path d="M12 15.75C10.21 15.75 8.75 14.29 8.75 12.5C8.75 10.71 10.21 9.25 12 9.25C13.79 9.25 15.25 10.71 15.25 12.5C15.25 14.29 13.79 15.75 12 15.75ZM12 10.75C11.04 10.75 10.25 11.54 10.25 12.5C10.25 13.46 11.04 14.25 12 14.25C12.96 14.25 13.75 13.46 13.75 12.5C13.75 11.54 12.96 10.75 12 10.75Z" fill="#2BA3FD"/>
<path d="M18.5 15.75C18.09 15.75 17.75 15.41 17.75 15V10C17.75 9.59 18.09 9.25 18.5 9.25C18.91 9.25 19.25 9.59 19.25 10V15C19.25 15.41 18.91 15.75 18.5 15.75Z" fill="#2BA3FD"/>
<path d="M8.5 19.19C8.09 19.19 7.75 18.85 7.75 18.44V17.16C7.75 16.94 7.57003 16.75 7.34003 16.75H2C1.59 16.75 1.25 16.41 1.25 16C1.25 15.59 1.59 15.25 2 15.25H7.34003C8.39003 15.25 9.25 16.11 9.25 17.16V18.44C9.25 18.85 8.91 19.19 8.5 19.19Z" fill="#2BA3FD"/>
<path d="M3.21994 17.9697C3.02994 17.9697 2.83997 17.8997 2.68997 17.7497L1.46994 16.5298C1.17994 16.2398 1.17994 15.7597 1.46994 15.4697L2.68997 14.2497C2.97997 13.9597 3.45997 13.9597 3.74997 14.2497C4.03997 14.5397 4.03997 15.0197 3.74997 15.3097L3.05997 15.9997L3.74997 16.6897C4.03997 16.9797 4.03997 17.4597 3.74997 17.7497C3.59997 17.8997 3.40994 17.9697 3.21994 17.9697Z" fill="#2BA3FD"/>
<path d="M8.5 22.0298H3.15997C2.10997 22.0298 1.25 21.1698 1.25 20.1198V18.8398C1.25 18.4298 1.59 18.0898 2 18.0898C2.41 18.0898 2.75 18.4298 2.75 18.8398V20.1198C2.75 20.3398 2.92997 20.5298 3.15997 20.5298H8.5C8.91 20.5298 9.25 20.8698 9.25 21.2798C9.25 21.6898 8.91 22.0298 8.5 22.0298Z" fill="#2BA3FD"/>
<path d="M7.27976 23.25C7.08976 23.25 6.89973 23.18 6.74973 23.03C6.45973 22.74 6.45973 22.2599 6.74973 21.9699L7.43973 21.28L6.74973 20.59C6.45973 20.3 6.45973 19.82 6.74973 19.53C7.03973 19.24 7.51972 19.24 7.80972 19.53L9.02976 20.75C9.31976 21.04 9.31976 21.52 9.02976 21.81L7.80972 23.03C7.66972 23.18 7.46976 23.25 7.27976 23.25Z" fill="#2BA3FD"/>
</svg>
