<svg width="36" height="36" viewBox="0 0 36 36" fill="none" xmlns="http://www.w3.org/2000/svg">
<circle cx="18" cy="18" r="18" fill="#F8F6F5"/>
<path d="M18.0201 26.5299C15.6901 26.5299 13.3601 26.1599 11.1501 25.4199C10.3101 25.1299 9.67011 24.5399 9.39011 23.7699C9.10011 22.9999 9.20011 22.1499 9.66011 21.3899L10.8101 19.4799C11.0501 19.0799 11.2701 18.2799 11.2701 17.8099V14.9199C11.2701 11.1999 14.3001 8.16992 18.0201 8.16992C21.7401 8.16992 24.7701 11.1999 24.7701 14.9199V17.8099C24.7701 18.2699 24.9901 19.0799 25.2301 19.4899L26.3701 21.3899C26.8001 22.1099 26.8801 22.9799 26.5901 23.7699C26.3001 24.5599 25.6701 25.1599 24.8801 25.4199C22.6801 26.1599 20.3501 26.5299 18.0201 26.5299ZM18.0201 9.66992C15.1301 9.66992 12.7701 12.0199 12.7701 14.9199V17.8099C12.7701 18.5399 12.4701 19.6199 12.1001 20.2499L10.9501 22.1599C10.7301 22.5299 10.6701 22.9199 10.8001 23.2499C10.9201 23.5899 11.2201 23.8499 11.6301 23.9899C15.8101 25.3899 20.2401 25.3899 24.4201 23.9899C24.7801 23.8699 25.0601 23.5999 25.1901 23.2399C25.3201 22.8799 25.2901 22.4899 25.0901 22.1599L23.9401 20.2499C23.5601 19.5999 23.2701 18.5299 23.2701 17.7999V14.9199C23.2701 12.0199 20.9201 9.66992 18.0201 9.66992Z" fill="#EE5C20"/>
<path d="M19.8801 9.94018C19.8101 9.94018 19.7401 9.93018 19.6701 9.91018C19.3801 9.83018 19.1001 9.77018 18.8301 9.73018C17.9801 9.62018 17.1601 9.68018 16.3901 9.91018C16.1101 10.0002 15.8101 9.91018 15.6201 9.70018C15.4301 9.49018 15.3701 9.19018 15.4801 8.92018C15.8901 7.87018 16.8901 7.18018 18.0301 7.18018C19.1701 7.18018 20.1701 7.86018 20.5801 8.92018C20.6801 9.19018 20.6301 9.49018 20.4401 9.70018C20.2901 9.86018 20.0801 9.94018 19.8801 9.94018Z" fill="#EE5C20"/>
<path d="M18.02 28.8101C17.03 28.8101 16.07 28.4101 15.37 27.7101C14.67 27.0101 14.27 26.0501 14.27 25.0601H15.77C15.77 25.6501 16.01 26.2301 16.43 26.6501C16.85 27.0701 17.43 27.3101 18.02 27.3101C19.26 27.3101 20.27 26.3001 20.27 25.0601H21.77C21.77 27.1301 20.09 28.8101 18.02 28.8101Z" fill="#EE5C20"/>
<circle cx="24" cy="12" r="4" fill="#EE5C20"/>
</svg>
