<svg width="58" height="58" viewBox="0 0 58 58" fill="none" xmlns="http://www.w3.org/2000/svg">
<g filter="url(#filter0_dd_2179_5968)">
<rect x="9" y="5" width="40" height="40" rx="20" fill="white" shape-rendering="crispEdges"/>
<g clip-path="url(#clip0_2179_5968)">
<path d="M33.1439 16.9462C33.4497 16.4863 34.0704 16.3613 34.5303 16.6671C37.2223 18.457 39 21.5206 39 24.9999C39 30.5227 34.5228 34.9999 29 34.9999C23.4771 34.9999 19 30.5227 19 24.9999C19 21.5206 20.7777 18.457 23.4697 16.6671C23.9296 16.3613 24.5503 16.4863 24.8561 16.9462C25.1619 17.4061 25.0369 18.0268 24.577 18.3326C22.4189 19.7675 21 22.2182 21 24.9999C21 29.4182 24.5817 32.9999 29 32.9999C33.4183 32.9999 37 29.4182 37 24.9999C37 22.2182 35.5811 19.7675 33.423 18.3326C32.9631 18.0268 32.8381 17.4061 33.1439 16.9462ZM29 15C29.5128 15 29.9355 15.386 29.9933 15.8834L30 16V26C30 26.5523 29.5523 27 29 27C28.4872 27 28.0645 26.614 28.0067 26.1166L28 26V16C28 15.4477 28.4477 15 29 15Z" fill="#8C8C8C"/>
</g>
</g>
<defs>
<filter id="filter0_dd_2179_5968" x="0.8" y="0.6" width="56.4" height="56.6" filterUnits="userSpaceOnUse" color-interpolation-filters="sRGB">
<feFlood flood-opacity="0" result="BackgroundImageFix"/>
<feColorMatrix in="SourceAlpha" type="matrix" values="0 0 0 0 0 0 0 0 0 0 0 0 0 0 0 0 0 0 127 0" result="hardAlpha"/>
<feOffset dy="4"/>
<feGaussianBlur stdDeviation="4.1"/>
<feComposite in2="hardAlpha" operator="out"/>
<feColorMatrix type="matrix" values="0 0 0 0 0.901961 0 0 0 0 0.380392 0 0 0 0 0.164706 0 0 0 0.06 0"/>
<feBlend mode="normal" in2="BackgroundImageFix" result="effect1_dropShadow_2179_5968"/>
<feColorMatrix in="SourceAlpha" type="matrix" values="0 0 0 0 0 0 0 0 0 0 0 0 0 0 0 0 0 0 127 0" result="hardAlpha"/>
<feOffset/>
<feGaussianBlur stdDeviation="2.2"/>
<feComposite in2="hardAlpha" operator="out"/>
<feColorMatrix type="matrix" values="0 0 0 0 0.901961 0 0 0 0 0.380392 0 0 0 0 0.164706 0 0 0 0.2 0"/>
<feBlend mode="normal" in2="effect1_dropShadow_2179_5968" result="effect2_dropShadow_2179_5968"/>
<feBlend mode="normal" in="SourceGraphic" in2="effect2_dropShadow_2179_5968" result="shape"/>
</filter>
<clipPath id="clip0_2179_5968">
<rect width="24" height="24" fill="white" transform="translate(17 13)"/>
</clipPath>
</defs>
</svg>
