<svg width="34" height="34" viewBox="0 0 34 34" fill="none" xmlns="http://www.w3.org/2000/svg">
<path d="M10.1584 3.31689H8.79002C4.68502 3.31689 3.31668 5.76621 3.31668 8.79023V10.1586V29.3152C3.31668 30.4509 4.60292 31.0941 5.50602 30.4099L7.84587 28.6584C8.3932 28.2479 9.15947 28.3027 9.65207 28.7953L11.9235 31.0804C12.4572 31.614 13.3329 31.614 13.8665 31.0804L16.1653 28.7816C16.6443 28.3027 17.4105 28.2479 17.9442 28.6584L20.284 30.4099C21.1871 31.0804 22.4734 30.4373 22.4734 29.3152V6.05356C22.4734 4.54839 23.7049 3.31689 25.21 3.31689H10.1584ZM8.74897 19.7506C7.99638 19.7506 7.38063 19.1348 7.38063 18.3822C7.38063 17.6297 7.99638 17.0139 8.74897 17.0139C9.50155 17.0139 10.1173 17.6297 10.1173 18.3822C10.1173 19.1348 9.50155 19.7506 8.74897 19.7506ZM8.74897 14.2772C7.99638 14.2772 7.38063 13.6615 7.38063 12.9089C7.38063 12.1563 7.99638 11.5406 8.74897 11.5406C9.50155 11.5406 10.1173 12.1563 10.1173 12.9089C10.1173 13.6615 9.50155 14.2772 8.74897 14.2772ZM17 19.4085H12.895C12.334 19.4085 11.8688 18.9433 11.8688 18.3822C11.8688 17.8212 12.334 17.356 12.895 17.356H17C17.561 17.356 18.0263 17.8212 18.0263 18.3822C18.0263 18.9433 17.561 19.4085 17 19.4085ZM17 13.9352H12.895C12.334 13.9352 11.8688 13.4699 11.8688 12.9089C11.8688 12.3479 12.334 11.8827 12.895 11.8827H17C17.561 11.8827 18.0263 12.3479 18.0263 12.9089C18.0263 13.4699 17.561 13.9352 17 13.9352Z" fill="#EE5C20"/>
<path d="M25.2237 3.31689V5.36939C26.1268 5.36939 26.9889 5.73884 27.6183 6.35459C28.2751 7.02508 28.6309 7.88713 28.6309 8.79023V12.1016C28.6309 13.1142 28.1793 13.5794 27.1531 13.5794H24.5259V6.06724C24.5259 5.68411 24.8406 5.36939 25.2237 5.36939V3.31689ZM25.2237 3.31689C23.7049 3.31689 22.4734 4.54839 22.4734 6.06724V15.6319H27.1531C29.315 15.6319 30.6834 14.2636 30.6834 12.1016V8.79023C30.6834 7.28506 30.0676 5.91673 29.0824 4.91784C28.0835 3.93264 26.7289 3.33058 25.2237 3.31689C25.2237 3.31689 25.2374 3.31689 25.2237 3.31689Z" fill="#EE5C20"/>
</svg>
