<svg width="32" height="32" viewBox="0 0 32 32" fill="none" xmlns="http://www.w3.org/2000/svg">
<rect width="32" height="32" rx="5.33333" fill="#EFF6FA"/>
<path d="M15.2611 18.2949L13.8222 19.7338C13.5189 20.0371 13.0367 20.0371 12.7256 19.7415C12.64 19.656 12.5545 19.5782 12.4689 19.4927C11.6678 18.6838 10.9445 17.836 10.2989 16.9493C9.66112 16.0627 9.14778 15.176 8.77445 14.2971C8.4089 13.4104 8.22223 12.5627 8.22223 11.7538C8.22223 11.2249 8.31556 10.7193 8.50223 10.2527C8.6889 9.77821 8.98445 9.34266 9.39667 8.95377C9.89445 8.46377 10.4389 8.22266 11.0145 8.22266C11.2322 8.22266 11.45 8.26932 11.6445 8.36266C11.8467 8.45599 12.0256 8.59599 12.1656 8.79821L13.97 11.3415C14.11 11.536 14.2111 11.7149 14.2811 11.886C14.3511 12.0493 14.39 12.2127 14.39 12.3604C14.39 12.5471 14.3356 12.7338 14.2267 12.9127C14.1256 13.0915 13.9778 13.2782 13.7911 13.4649L13.2 14.0793C13.1145 14.1649 13.0756 14.266 13.0756 14.3904C13.0756 14.4527 13.0833 14.5071 13.0989 14.5693C13.1222 14.6315 13.1456 14.6782 13.1611 14.7249C13.3011 14.9815 13.5422 15.316 13.8845 15.7204C14.2345 16.1249 14.6078 16.5371 15.0122 16.9493C15.09 17.0271 15.1756 17.1049 15.2533 17.1827C15.5645 17.486 15.5722 17.9838 15.2611 18.2949Z" fill="#18CEAD"/>
<path d="M23.7544 20.9226C23.7544 21.1404 23.7155 21.3659 23.6377 21.5837C23.6144 21.6459 23.5911 21.7082 23.56 21.7704C23.4277 22.0504 23.2566 22.3148 23.0311 22.5637C22.65 22.9837 22.23 23.287 21.7555 23.4815C21.7477 23.4815 21.74 23.4893 21.7322 23.4893C21.2733 23.6759 20.7755 23.777 20.2389 23.777C19.4455 23.777 18.5977 23.5904 17.7033 23.2093C16.8089 22.8282 15.9144 22.3148 15.0277 21.6693C14.7244 21.4437 14.4211 21.2182 14.1333 20.977L16.6766 18.4337C16.8944 18.597 17.0889 18.7215 17.2522 18.807C17.2911 18.8226 17.3377 18.8459 17.3922 18.8693C17.4544 18.8926 17.5166 18.9004 17.5866 18.9004C17.7189 18.9004 17.82 18.8537 17.9055 18.7682L18.4966 18.1848C18.6911 17.9904 18.8777 17.8426 19.0566 17.7493C19.2355 17.6404 19.4144 17.5859 19.6089 17.5859C19.7566 17.5859 19.9122 17.617 20.0833 17.687C20.2544 17.757 20.4333 17.8582 20.6277 17.9904L23.2022 19.8182C23.4044 19.9582 23.5444 20.1215 23.63 20.3159C23.7077 20.5104 23.7544 20.7048 23.7544 20.9226Z" fill="#18CEAD"/>
</svg>
