<svg width="21" height="20" viewBox="0 0 21 20" fill="none" xmlns="http://www.w3.org/2000/svg">
<path d="M12.35 18.0249C11.3667 18.0249 9.975 17.3333 8.875 14.0249L8.275 12.2249L6.475 11.6249C3.175 10.5249 2.48334 9.13327 2.48334 8.14994C2.48334 7.17494 3.175 5.77494 6.475 4.6666L13.55 2.30827C15.3167 1.7166 16.7917 1.8916 17.7 2.7916C18.6083 3.6916 18.7833 5.17494 18.1917 6.9416L15.8333 14.0166C14.725 17.3333 13.3333 18.0249 12.35 18.0249ZM6.86667 5.85827C4.55 6.63327 3.725 7.54994 3.725 8.14994C3.725 8.74994 4.55 9.6666 6.86667 10.4333L8.96667 11.1333C9.15 11.1916 9.3 11.3416 9.35834 11.5249L10.0583 13.6249C10.825 15.9416 11.75 16.7666 12.35 16.7666C12.95 16.7666 13.8667 15.9416 14.6417 13.6249L17 6.54994C17.425 5.2666 17.35 4.2166 16.8083 3.67494C16.2667 3.13327 15.2167 3.0666 13.9417 3.4916L6.86667 5.85827Z" fill="white"/>
<path d="M8.92501 11.9998C8.76668 11.9998 8.60834 11.9415 8.48334 11.8165C8.24168 11.5748 8.24168 11.1748 8.48334 10.9332L11.4667 7.9415C11.7083 7.69984 12.1083 7.69984 12.35 7.9415C12.5917 8.18317 12.5917 8.58317 12.35 8.82484L9.36668 11.8165C9.25001 11.9415 9.08334 11.9998 8.92501 11.9998Z" fill="white"/>
</svg>
