<svg width="32" height="32" viewBox="0 0 32 32" fill="none" xmlns="http://www.w3.org/2000/svg">
<rect width="32" height="32" rx="4" fill="#F2EFFA"/>
<path d="M19.3333 10.334H12.6667C10.6667 10.334 9.33334 11.334 9.33334 13.6673V18.334C9.33334 20.6673 10.6667 21.6673 12.6667 21.6673H19.3333C21.3333 21.6673 22.6667 20.6673 22.6667 18.334V13.6673C22.6667 11.334 21.3333 10.334 19.3333 10.334ZM19.6467 14.394L17.56 16.0607C17.12 16.414 16.56 16.5873 16 16.5873C15.44 16.5873 14.8733 16.414 14.44 16.0607L12.3533 14.394C12.14 14.2207 12.1067 13.9007 12.2733 13.6873C12.4467 13.474 12.76 13.434 12.9733 13.6073L15.06 15.274C15.5667 15.6807 16.4267 15.6807 16.9333 15.274L19.02 13.6073C19.2333 13.434 19.5533 13.4673 19.72 13.6873C19.8933 13.9007 19.86 14.2207 19.6467 14.394Z" fill="#7B61FF"/>
</svg>
