<svg width="32" height="32" viewBox="0 0 32 32" fill="none" xmlns="http://www.w3.org/2000/svg">
<rect width="32" height="32" rx="4" fill="#E2F7EA"/>
<g clip-path="url(#clip0_112_12482)">
<path d="M8.34144 15.9035C8.34107 17.2479 8.69507 18.5605 9.36819 19.7174L8.27707 23.6704L12.3541 22.6097C13.4817 23.2188 14.7452 23.538 16.0291 23.5381H16.0324C20.2709 23.5381 23.7211 20.1159 23.7229 15.9096C23.7237 13.8713 22.9244 11.9546 21.4723 10.5127C20.0204 9.0708 18.0895 8.27632 16.0321 8.27539C11.7932 8.27539 8.34326 11.6974 8.34151 15.9035" fill="url(#paint0_linear_112_12482)"/>
<path d="M8.06688 15.9018C8.06644 17.2944 8.43312 18.654 9.13025 19.8524L8 23.9471L12.2232 22.8484C13.3868 23.4779 14.6969 23.8098 16.0301 23.8103H16.0335C20.424 23.8103 23.9981 20.265 24 15.9081C24.0007 13.7966 23.1727 11.811 21.6687 10.3174C20.1646 8.82394 18.1646 8.00087 16.0335 8C11.6422 8 8.06863 11.5448 8.06688 15.9018ZM10.5819 19.646L10.4242 19.3976C9.76131 18.3518 9.41144 17.1433 9.41194 15.9023C9.41338 12.2809 12.3836 9.33457 16.036 9.33457C17.8048 9.33532 19.467 10.0195 20.7172 11.2608C21.9674 12.5022 22.6554 14.1524 22.6549 15.9076C22.6533 19.529 19.683 22.4757 16.0335 22.4757H16.0309C14.8426 22.475 13.6771 22.1584 12.6607 21.56L12.4189 21.4177L9.91275 22.0696L10.5819 19.646V19.646Z" fill="url(#paint1_linear_112_12482)"/>
<path d="M14.0424 12.5978C13.8933 12.269 13.7363 12.2623 13.5945 12.2565C13.4784 12.2516 13.3456 12.252 13.213 12.252C13.0803 12.252 12.8646 12.3015 12.6823 12.499C12.4998 12.6967 11.9855 13.1745 11.9855 14.1462C11.9855 15.118 12.6988 16.0571 12.7983 16.189C12.8978 16.3207 14.1753 18.3786 16.1986 19.1703C17.8801 19.8282 18.2223 19.6974 18.5872 19.6644C18.9522 19.6315 19.7649 19.1867 19.9308 18.7255C20.0967 18.2644 20.0967 17.8691 20.0469 17.7865C19.9972 17.7042 19.8644 17.6547 19.6654 17.556C19.4663 17.4572 18.4876 16.9794 18.3052 16.9135C18.1227 16.8476 17.99 16.8148 17.8573 17.0125C17.7245 17.21 17.3433 17.6548 17.2271 17.7865C17.1111 17.9185 16.9949 17.9349 16.7959 17.8361C16.5967 17.737 15.9556 17.5287 15.1951 16.8559C14.6033 16.3324 14.2038 15.6859 14.0877 15.4881C13.9716 15.2907 14.0753 15.1836 14.1751 15.0852C14.2645 14.9967 14.3742 14.8546 14.4738 14.7393C14.5731 14.6239 14.6062 14.5416 14.6726 14.4099C14.739 14.2781 14.7058 14.1627 14.6561 14.0639C14.6062 13.9651 14.2194 12.9883 14.0424 12.5978Z" fill="white"/>
</g>
<defs>
<linearGradient id="paint0_linear_112_12482" x1="780.568" y1="1547.78" x2="780.568" y2="8.27539" gradientUnits="userSpaceOnUse">
<stop stop-color="#1FAF38"/>
<stop offset="1" stop-color="#60D669"/>
</linearGradient>
<linearGradient id="paint1_linear_112_12482" x1="808" y1="1602.71" x2="808" y2="8" gradientUnits="userSpaceOnUse">
<stop stop-color="#F9F9F9"/>
<stop offset="1" stop-color="white"/>
</linearGradient>
<clipPath id="clip0_112_12482">
<rect width="16" height="16" fill="white" transform="translate(8 8)"/>
</clipPath>
</defs>
</svg>
