<svg width="48" height="48" viewBox="0 0 48 48" fill="none" xmlns="http://www.w3.org/2000/svg">
<rect width="48" height="48" rx="8" fill="#F2EFFA"/>
<path d="M18.1666 12.3335H17C13.5 12.3335 12.3333 14.4218 12.3333 17.0002V18.1668V34.5002C12.3333 35.4685 13.43 36.0168 14.2 35.4335L16.195 33.9402C16.6616 33.5902 17.315 33.6368 17.735 34.0568L19.6716 36.0052C20.1266 36.4602 20.8733 36.4602 21.3283 36.0052L23.2883 34.0452C23.6966 33.6368 24.35 33.5902 24.805 33.9402L26.8 35.4335C27.57 36.0052 28.6666 35.4568 28.6666 34.5002V14.6668C28.6666 13.3835 29.7166 12.3335 31 12.3335H18.1666ZM23.7083 22.5418H17.2916C16.8133 22.5418 16.4166 22.1452 16.4166 21.6668C16.4166 21.1885 16.8133 20.7918 17.2916 20.7918H23.7083C24.1866 20.7918 24.5833 21.1885 24.5833 21.6668C24.5833 22.1452 24.1866 22.5418 23.7083 22.5418Z" fill="#7B61FF"/>
<path d="M31.0117 12.3335V14.0835C31.7817 14.0835 32.5167 14.3985 33.0534 14.9235C33.6134 15.4952 33.9167 16.2302 33.9167 17.0002V19.8235C33.9167 20.6868 33.5317 21.0835 32.6567 21.0835H30.4167V14.6785C30.4167 14.3518 30.685 14.0835 31.0117 14.0835V12.3335ZM31.0117 12.3335C29.7167 12.3335 28.6667 13.3835 28.6667 14.6785V22.8335H32.6567C34.5 22.8335 35.6667 21.6668 35.6667 19.8235V17.0002C35.6667 15.7168 35.1417 14.5502 34.3017 13.6985C33.45 12.8585 32.295 12.3452 31.0117 12.3335C31.0234 12.3335 31.0117 12.3335 31.0117 12.3335Z" fill="#7B61FF"/>
</svg>
