<svg width="24" height="24" viewBox="0 0 24 24" fill="none" xmlns="http://www.w3.org/2000/svg">
<rect width="24" height="24" rx="12" fill="#33CCFF"/>
<path d="M17.9565 8.20051C17.5603 8.37121 17.1437 8.49007 16.717 8.55416C16.9165 8.51994 17.21 8.16058 17.3268 8.01513C17.5043 7.79573 17.6396 7.54527 17.7257 7.27646C17.7257 7.2565 17.7457 7.22798 17.7257 7.21372C17.7157 7.20823 17.7044 7.20535 17.693 7.20535C17.6815 7.20535 17.6702 7.20823 17.6602 7.21372C17.1969 7.46482 16.7039 7.65646 16.1927 7.78412C16.1749 7.78957 16.1559 7.79006 16.1379 7.78553C16.1198 7.78101 16.1033 7.77165 16.0901 7.75845C16.0503 7.71103 16.0075 7.66625 15.9619 7.62441C15.7534 7.43744 15.5169 7.28442 15.2609 7.17094C14.9155 7.02907 14.5423 6.96764 14.1696 6.99126C13.808 7.01412 13.4549 7.1112 13.1324 7.27646C12.8148 7.4507 12.5356 7.6874 12.3117 7.97235C12.0762 8.26564 11.9062 8.606 11.8131 8.97055C11.7363 9.31731 11.7276 9.67571 11.7874 10.0258C11.7874 10.0857 11.7874 10.0942 11.7361 10.0857C9.70447 9.78623 8.03753 9.06467 6.67548 7.51603C6.61564 7.44758 6.5843 7.44758 6.53586 7.51603C5.94317 8.41726 6.23096 9.84327 6.97183 10.5477C7.07156 10.6418 7.17414 10.7331 7.28242 10.8187C6.94274 10.7945 6.61135 10.7024 6.3079 10.5477C6.25091 10.5106 6.21957 10.5306 6.21672 10.599C6.20864 10.6939 6.20864 10.7894 6.21672 10.8842C6.27617 11.339 6.45524 11.7698 6.73561 12.1326C7.01597 12.4954 7.38758 12.7772 7.81242 12.9491C7.91599 12.9935 8.0239 13.027 8.13441 13.0489C7.81995 13.1109 7.49743 13.1205 7.17984 13.0774C7.11145 13.0632 7.08581 13.1003 7.11145 13.1659C7.53032 14.3067 8.4393 14.6546 9.10608 14.8485C9.19726 14.8628 9.28845 14.8628 9.39103 14.8856C9.39103 14.8856 9.39103 14.8856 9.37393 14.9027C9.17732 15.2621 8.38232 15.5045 8.01758 15.63C7.35185 15.8693 6.64206 15.9608 5.93747 15.8981C5.82634 15.881 5.80069 15.8838 5.7722 15.8981C5.74371 15.9123 5.7722 15.9437 5.80354 15.9722C5.94602 16.0663 6.08849 16.149 6.23666 16.2289C6.67777 16.4697 7.14412 16.661 7.62721 16.7993C10.129 17.4895 12.9443 16.9818 14.8221 15.1138C16.2981 13.6478 16.8167 11.6258 16.8167 9.60085C16.8167 9.52384 16.9108 9.47821 16.9649 9.43828C17.3383 9.14706 17.6676 8.80314 17.9423 8.41726C17.9899 8.35974 18.0143 8.28651 18.0107 8.21192C18.0107 8.16914 18.0107 8.1777 17.9565 8.20051Z" fill="white"/>
</svg>
