<svg width="36" height="36" viewBox="0 0 36 36" fill="none" xmlns="http://www.w3.org/2000/svg">
<rect x="2" y="2" width="32" height="32" rx="16" fill="#F8F5F3"/>
<rect x="2" y="2" width="32" height="32" rx="16" stroke="#FCFAF9" stroke-width="4"/>
<path d="M15.9996 21.8336C15.7263 21.8336 15.4996 21.607 15.4996 21.3336V18.5403L15.0196 19.0203C14.8263 19.2136 14.5063 19.2136 14.313 19.0203C14.1196 18.827 14.1196 18.507 14.313 18.3136L15.6463 16.9803C15.7863 16.8403 16.0063 16.7936 16.193 16.8736C16.3796 16.947 16.4996 17.1336 16.4996 17.3336V21.3336C16.4996 21.607 16.273 21.8336 15.9996 21.8336Z" fill="#5F5C5A"/>
<path d="M17.3336 19.167C17.207 19.167 17.0803 19.1203 16.9803 19.0203L15.647 17.687C15.4536 17.4936 15.4536 17.1736 15.647 16.9803C15.8403 16.787 16.1603 16.787 16.3536 16.9803L17.687 18.3136C17.8803 18.507 17.8803 18.827 17.687 19.0203C17.587 19.1203 17.4603 19.167 17.3336 19.167Z" fill="#5F5C5A"/>
<path d="M20.0007 25.1667H16.0007C12.3807 25.1667 10.834 23.62 10.834 20V16C10.834 12.38 12.3807 10.8333 16.0007 10.8333H19.334C19.6073 10.8333 19.834 11.06 19.834 11.3333C19.834 11.6067 19.6073 11.8333 19.334 11.8333H16.0007C12.9273 11.8333 11.834 12.9267 11.834 16V20C11.834 23.0733 12.9273 24.1667 16.0007 24.1667H20.0007C23.074 24.1667 24.1673 23.0733 24.1673 20V16.6667C24.1673 16.3933 24.394 16.1667 24.6673 16.1667C24.9407 16.1667 25.1673 16.3933 25.1673 16.6667V20C25.1673 23.62 23.6207 25.1667 20.0007 25.1667Z" fill="#5F5C5A"/>
<path d="M24.6673 17.167H22.0007C19.7207 17.167 18.834 16.2803 18.834 14.0003V11.3336C18.834 11.1336 18.954 10.947 19.1407 10.8736C19.3273 10.7936 19.5407 10.8403 19.6873 10.9803L25.0207 16.3136C25.1607 16.4536 25.2073 16.6736 25.1273 16.8603C25.0473 17.047 24.8673 17.167 24.6673 17.167ZM19.834 12.5403V14.0003C19.834 15.7203 20.2807 16.167 22.0007 16.167H23.4607L19.834 12.5403Z" fill="#5F5C5A"/>
</svg>
