<svg width="474" height="164" viewBox="0 0 474 164" fill="none" xmlns="http://www.w3.org/2000/svg">
<g clip-path="url(#clip0_1568_27260)">
<mask id="mask0_1568_27260" style="mask-type:luminance" maskUnits="userSpaceOnUse" x="0" y="0" width="474" height="164">
<path d="M466 0H8C3.58172 0 0 3.58172 0 8V156C0 160.418 3.58172 164 8 164H466C470.418 164 474 160.418 474 156V8C474 3.58172 470.418 0 466 0Z" fill="white"/>
</mask>
<g mask="url(#mask0_1568_27260)">
<path d="M466 0H8C3.58172 0 0 3.58172 0 8V156C0 160.418 3.58172 164 8 164H466C470.418 164 474 160.418 474 156V8C474 3.58172 470.418 0 466 0Z" fill="#110D0C"/>
<g opacity="0.2">
<path d="M108.75 8H109V8.25H117C123.765 8.25 129.25 2.76549 129.25 -4H129V-4.25H121C114.235 -4.25 108.75 1.23451 108.75 8Z" stroke="#E2E0DF" stroke-width="0.5"/>
<path d="M24.75 104H25V104.25H33C39.7655 104.25 45.25 98.7655 45.25 92H45V91.75H37C30.2345 91.75 24.75 97.2345 24.75 104Z" stroke="#E2E0DF" stroke-width="0.5"/>
<path d="M66.75 56H67V56.25H75C81.7655 56.25 87.25 50.7655 87.25 44H87V43.75H79C72.2345 43.75 66.75 49.2345 66.75 56Z" stroke="#E2E0DF" stroke-width="0.5"/>
<path d="M-17.25 152H-17V152.25H-9C-2.23451 152.25 3.25 146.765 3.25 140H3V139.75H-5C-11.7655 139.75 -17.25 145.235 -17.25 152Z" stroke="#E2E0DF" stroke-width="0.5"/>
<path d="M87.75 32H88V32.25H96C102.765 32.25 108.25 26.7655 108.25 20H108V19.75H100C93.2345 19.75 87.75 25.2345 87.75 32Z" stroke="#E2E0DF" stroke-width="0.5"/>
<path d="M3.75 128H4V128.25H12C18.7655 128.25 24.25 122.765 24.25 116H24V115.75H16C9.23451 115.75 3.75 121.235 3.75 128Z" stroke="#E2E0DF" stroke-width="0.5"/>
<path d="M45.75 80H46V80.25H54C60.7655 80.25 66.25 74.7655 66.25 68H66V67.75H58C51.2345 67.75 45.75 73.2345 45.75 80Z" stroke="#E2E0DF" stroke-width="0.5"/>
<path d="M111 8.25H118.747C118.614 14.6239 113.406 19.75 107 19.75H99.2526C99.3856 13.3761 104.594 8.25 111 8.25Z" stroke="#E2E0DF" stroke-width="0.5"/>
<path d="M27 104.25H34.7474C34.6144 110.624 29.4058 115.75 23 115.75H15.2526C15.3856 109.376 20.5942 104.25 27 104.25Z" stroke="#E2E0DF" stroke-width="0.5"/>
<path d="M69 56.25H76.7474C76.6144 62.6239 71.4058 67.75 65 67.75H57.2526C57.3856 61.3761 62.5942 56.25 69 56.25Z" stroke="#E2E0DF" stroke-width="0.5"/>
<path d="M49 80.25H56.7474C56.6144 86.6239 51.4058 91.75 45 91.75H37.2526C37.3856 85.3761 42.5942 80.25 49 80.25Z" stroke="#E2E0DF" stroke-width="0.5"/>
<path d="M91 32.25H98.7474C98.6144 38.6239 93.4058 43.75 87 43.75H79.2526C79.3856 37.3761 84.5942 32.25 91 32.25Z" stroke="#E2E0DF" stroke-width="0.5"/>
<path d="M6.99995 128.25H14.7474C14.6144 134.624 9.40576 139.75 2.99995 139.75H-4.74744C-4.6144 133.376 0.594148 128.25 6.99995 128.25Z" stroke="#E2E0DF" stroke-width="0.5"/>
<path d="M3.75 8H4V8.25H12C18.7655 8.25 24.25 2.76549 24.25 -4H24V-4.25H16C9.23451 -4.25 3.75 1.23451 3.75 8Z" stroke="#E2E0DF" stroke-width="0.5"/>
<path d="M-17.25 32H-17V32.25H-9C-2.23451 32.25 3.25 26.7655 3.25 20H3V19.75H-5C-11.7655 19.75 -17.25 25.2345 -17.25 32Z" stroke="#E2E0DF" stroke-width="0.5"/>
<path d="M5.99995 8.25H13.7474C13.6144 14.6239 8.40576 19.75 1.99995 19.75H-5.74744C-5.6144 13.3761 -0.405852 8.25 5.99995 8.25Z" stroke="#E2E0DF" stroke-width="0.5"/>
<path d="M143.75 8H144V8.25H152C158.765 8.25 164.25 2.76549 164.25 -4H164V-4.25H156C149.235 -4.25 143.75 1.23451 143.75 8Z" stroke="#E2E0DF" stroke-width="0.5"/>
<path d="M59.75 104H60V104.25H68C74.7655 104.25 80.25 98.7655 80.25 92H80V91.75H72C65.2345 91.75 59.75 97.2345 59.75 104Z" stroke="#E2E0DF" stroke-width="0.5"/>
<path d="M101.75 56H102V56.25H110C116.765 56.25 122.25 50.7655 122.25 44H122V43.75H114C107.235 43.75 101.75 49.2345 101.75 56Z" stroke="#E2E0DF" stroke-width="0.5"/>
<path d="M17.75 152H18V152.25H26C32.7655 152.25 38.25 146.765 38.25 140H38V139.75H30C23.2345 139.75 17.75 145.235 17.75 152Z" stroke="#E2E0DF" stroke-width="0.5"/>
<path d="M122.75 32H123V32.25H131C137.765 32.25 143.25 26.7655 143.25 20H143V19.75H135C128.235 19.75 122.75 25.2345 122.75 32Z" stroke="#E2E0DF" stroke-width="0.5"/>
<path d="M38.75 128H39V128.25H47C53.7655 128.25 59.25 122.765 59.25 116H59V115.75H51C44.2345 115.75 38.75 121.235 38.75 128Z" stroke="#E2E0DF" stroke-width="0.5"/>
<path d="M80.75 80H81V80.25H89C95.7655 80.25 101.25 74.7655 101.25 68H101V67.75H93C86.2345 67.75 80.75 73.2345 80.75 80Z" stroke="#E2E0DF" stroke-width="0.5"/>
<path d="M-3.25 176H-3V176.25H5C11.7655 176.25 17.25 170.765 17.25 164H17V163.75H9C2.23451 163.75 -3.25 169.235 -3.25 176Z" stroke="#E2E0DF" stroke-width="0.5"/>
<path d="M146 8.25H153.747C153.614 14.6239 148.406 19.75 142 19.75H134.253C134.386 13.3761 139.594 8.25 146 8.25Z" stroke="#E2E0DF" stroke-width="0.5"/>
<path d="M62 104.25H69.7474C69.6144 110.624 64.4058 115.75 58 115.75H50.2526C50.3856 109.376 55.5942 104.25 62 104.25Z" stroke="#E2E0DF" stroke-width="0.5"/>
<path d="M104 56.25H111.747C111.614 62.6239 106.406 67.75 100 67.75H92.2526C92.3856 61.3761 97.5942 56.25 104 56.25Z" stroke="#E2E0DF" stroke-width="0.5"/>
<path d="M20 152.25H27.7474C27.6144 158.624 22.4058 163.75 16 163.75H8.25256C8.3856 157.376 13.5942 152.25 20 152.25Z" stroke="#E2E0DF" stroke-width="0.5"/>
<path d="M84 80.25H91.7474C91.6144 86.6239 86.4058 91.75 80 91.75H72.2526C72.3856 85.3761 77.5942 80.25 84 80.25Z" stroke="#E2E0DF" stroke-width="0.5"/>
<path d="M126 32.25H133.747C133.614 38.6239 128.406 43.75 122 43.75H114.253C114.386 37.3761 119.594 32.25 126 32.25Z" stroke="#E2E0DF" stroke-width="0.5"/>
<path d="M42 128.25H49.7474C49.6144 134.624 44.4058 139.75 38 139.75H30.2526C30.3856 133.376 35.5942 128.25 42 128.25Z" stroke="#E2E0DF" stroke-width="0.5"/>
<path d="M38.75 8H39V8.25H47C53.7655 8.25 59.25 2.76549 59.25 -4H59V-4.25H51C44.2345 -4.25 38.75 1.23451 38.75 8Z" stroke="#E2E0DF" stroke-width="0.5"/>
<path d="M-3.25 56H-3V56.25H5C11.7655 56.25 17.25 50.7655 17.25 44H17V43.75H9C2.23451 43.75 -3.25 49.2345 -3.25 56Z" stroke="#E2E0DF" stroke-width="0.5"/>
<path d="M17.75 32H18V32.25H26C32.7655 32.25 38.25 26.7655 38.25 20H38V19.75H30C23.2345 19.75 17.75 25.2345 17.75 32Z" stroke="#E2E0DF" stroke-width="0.5"/>
<path d="M41 8.25H48.7474C48.6144 14.6239 43.4058 19.75 37 19.75H29.2526C29.3856 13.3761 34.5942 8.25 41 8.25Z" stroke="#E2E0DF" stroke-width="0.5"/>
<path d="M-1.00004 56.25H6.74735C6.61431 62.6239 1.40577 67.75 -5.00004 67.75H-12.7474C-12.6144 61.3761 -7.40584 56.25 -1.00004 56.25Z" stroke="#E2E0DF" stroke-width="0.5"/>
<path d="M21 32.25H28.7474C28.6144 38.6239 23.4058 43.75 17 43.75H9.25256C9.3856 37.3761 14.5942 32.25 21 32.25Z" stroke="#E2E0DF" stroke-width="0.5"/>
<path d="M178.75 8H179V8.25H187C193.765 8.25 199.25 2.76549 199.25 -4H199V-4.25H191C184.235 -4.25 178.75 1.23451 178.75 8Z" stroke="#E2E0DF" stroke-width="0.5"/>
<path d="M94.75 104H95V104.25H103C109.765 104.25 115.25 98.7655 115.25 92H115V91.75H107C100.235 91.75 94.75 97.2345 94.75 104Z" stroke="#E2E0DF" stroke-width="0.5"/>
<path d="M136.75 56H137V56.25H145C151.765 56.25 157.25 50.7655 157.25 44H157V43.75H149C142.235 43.75 136.75 49.2345 136.75 56Z" stroke="#E2E0DF" stroke-width="0.5"/>
<path d="M52.75 152H53V152.25H61C67.7655 152.25 73.25 146.765 73.25 140H73V139.75H65C58.2345 139.75 52.75 145.235 52.75 152Z" stroke="#E2E0DF" stroke-width="0.5"/>
<path d="M157.75 32H158V32.25H166C172.765 32.25 178.25 26.7655 178.25 20H178V19.75H170C163.235 19.75 157.75 25.2345 157.75 32Z" stroke="#E2E0DF" stroke-width="0.5"/>
<path d="M73.75 128H74V128.25H82C88.7655 128.25 94.25 122.765 94.25 116H94V115.75H86C79.2345 115.75 73.75 121.235 73.75 128Z" stroke="#E2E0DF" stroke-width="0.5"/>
<path d="M115.75 80H116V80.25H124C130.765 80.25 136.25 74.7655 136.25 68H136V67.75H128C121.235 67.75 115.75 73.2345 115.75 80Z" stroke="#E2E0DF" stroke-width="0.5"/>
<path d="M31.75 176H32V176.25H40C46.7655 176.25 52.25 170.765 52.25 164H52V163.75H44C37.2345 163.75 31.75 169.235 31.75 176Z" stroke="#E2E0DF" stroke-width="0.5"/>
<path d="M181 8.25H188.747C188.614 14.6239 183.406 19.75 177 19.75H169.253C169.386 13.3761 174.594 8.25 181 8.25Z" stroke="#E2E0DF" stroke-width="0.5"/>
<path d="M97 104.25H104.747C104.614 110.624 99.4058 115.75 93 115.75H85.2526C85.3856 109.376 90.5942 104.25 97 104.25Z" stroke="#E2E0DF" stroke-width="0.5"/>
<path d="M139 56.25H146.747C146.614 62.6239 141.406 67.75 135 67.75H127.253C127.386 61.3761 132.594 56.25 139 56.25Z" stroke="#E2E0DF" stroke-width="0.5"/>
<path d="M55 152.25H62.7474C62.6144 158.624 57.4058 163.75 51 163.75H43.2526C43.3856 157.376 48.5942 152.25 55 152.25Z" stroke="#E2E0DF" stroke-width="0.5"/>
<path d="M119 80.25H126.747C126.614 86.6239 121.406 91.75 115 91.75H107.253C107.386 85.3761 112.594 80.25 119 80.25Z" stroke="#E2E0DF" stroke-width="0.5"/>
<path d="M161 32.25H168.747C168.614 38.6239 163.406 43.75 157 43.75H149.253C149.386 37.3761 154.594 32.25 161 32.25Z" stroke="#E2E0DF" stroke-width="0.5"/>
<path d="M77 128.25H84.7474C84.6144 134.624 79.4058 139.75 73 139.75H65.2526C65.3856 133.376 70.5942 128.25 77 128.25Z" stroke="#E2E0DF" stroke-width="0.5"/>
<path d="M73.75 8H74V8.25H82C88.7655 8.25 94.25 2.76549 94.25 -4H94V-4.25H86C79.2345 -4.25 73.75 1.23451 73.75 8Z" stroke="#E2E0DF" stroke-width="0.5"/>
<path d="M-10.25 104H-10V104.25H-2C4.76549 104.25 10.25 98.7655 10.25 92H10V91.75H2C-4.76549 91.75 -10.25 97.2345 -10.25 104Z" stroke="#E2E0DF" stroke-width="0.5"/>
<path d="M31.75 56H32V56.25H40C46.7655 56.25 52.25 50.7655 52.25 44H52V43.75H44C37.2345 43.75 31.75 49.2345 31.75 56Z" stroke="#E2E0DF" stroke-width="0.5"/>
<path d="M52.75 32H53V32.25H61C67.7655 32.25 73.25 26.7655 73.25 20H73V19.75H65C58.2345 19.75 52.75 25.2345 52.75 32Z" stroke="#E2E0DF" stroke-width="0.5"/>
<path d="M10.75 80H11V80.25H19C25.7655 80.25 31.25 74.7655 31.25 68H31V67.75H23C16.2345 67.75 10.75 73.2345 10.75 80Z" stroke="#E2E0DF" stroke-width="0.5"/>
<path d="M76 8.25H83.7474C83.6144 14.6239 78.4058 19.75 72 19.75H64.2526C64.3856 13.3761 69.5942 8.25 76 8.25Z" stroke="#E2E0DF" stroke-width="0.5"/>
<path d="M34 56.25H41.7474C41.6144 62.6239 36.4058 67.75 30 67.75H22.2526C22.3856 61.3761 27.5942 56.25 34 56.25Z" stroke="#E2E0DF" stroke-width="0.5"/>
<path d="M14 80.25H21.7474C21.6144 86.6239 16.4058 91.75 9.99995 91.75H2.25256C2.3856 85.3761 7.59414 80.25 14 80.25Z" stroke="#E2E0DF" stroke-width="0.5"/>
<path d="M56 32.25H63.7474C63.6144 38.6239 58.4058 43.75 52 43.75H44.2526C44.3856 37.3761 49.5942 32.25 56 32.25Z" stroke="#E2E0DF" stroke-width="0.5"/>
<path d="M213.75 8H214V8.25H222C228.765 8.25 234.25 2.76549 234.25 -4H234V-4.25H226C219.235 -4.25 213.75 1.23451 213.75 8Z" stroke="#E2E0DF" stroke-width="0.5"/>
<path d="M129.75 104H130V104.25H138C144.765 104.25 150.25 98.7655 150.25 92H150V91.75H142C135.235 91.75 129.75 97.2345 129.75 104Z" stroke="#E2E0DF" stroke-width="0.5"/>
<path d="M171.75 56H172V56.25H180C186.765 56.25 192.25 50.7655 192.25 44H192V43.75H184C177.235 43.75 171.75 49.2345 171.75 56Z" stroke="#E2E0DF" stroke-width="0.5"/>
<path d="M87.75 152H88V152.25H96C102.765 152.25 108.25 146.765 108.25 140H108V139.75H100C93.2345 139.75 87.75 145.235 87.75 152Z" stroke="#E2E0DF" stroke-width="0.5"/>
<path d="M192.75 32H193V32.25H201C207.765 32.25 213.25 26.7655 213.25 20H213V19.75H205C198.235 19.75 192.75 25.2345 192.75 32Z" stroke="#E2E0DF" stroke-width="0.5"/>
<path d="M108.75 128H109V128.25H117C123.765 128.25 129.25 122.765 129.25 116H129V115.75H121C114.235 115.75 108.75 121.235 108.75 128Z" stroke="#E2E0DF" stroke-width="0.5"/>
<path d="M150.75 80H151V80.25H159C165.765 80.25 171.25 74.7655 171.25 68H171V67.75H163C156.235 67.75 150.75 73.2345 150.75 80Z" stroke="#E2E0DF" stroke-width="0.5"/>
<path d="M66.75 176H67V176.25H75C81.7655 176.25 87.25 170.765 87.25 164H87V163.75H79C72.2345 163.75 66.75 169.235 66.75 176Z" stroke="#E2E0DF" stroke-width="0.5"/>
<path d="M216 8.25H223.747C223.614 14.6239 218.406 19.75 212 19.75H204.253C204.386 13.3761 209.594 8.25 216 8.25Z" stroke="#E2E0DF" stroke-width="0.5"/>
<path d="M132 104.25H139.747C139.614 110.624 134.406 115.75 128 115.75H120.253C120.386 109.376 125.594 104.25 132 104.25Z" stroke="#E2E0DF" stroke-width="0.5"/>
<path d="M174 56.25H181.747C181.614 62.6239 176.406 67.75 170 67.75H162.253C162.386 61.3761 167.594 56.25 174 56.25Z" stroke="#E2E0DF" stroke-width="0.5"/>
<path d="M90 152.25H97.7474C97.6144 158.624 92.4058 163.75 86 163.75H78.2526C78.3856 157.376 83.5942 152.25 90 152.25Z" stroke="#E2E0DF" stroke-width="0.5"/>
<path d="M154 80.25H161.747C161.614 86.6239 156.406 91.75 150 91.75H142.253C142.386 85.3761 147.594 80.25 154 80.25Z" stroke="#E2E0DF" stroke-width="0.5"/>
<path d="M196 32.25H203.747C203.614 38.6239 198.406 43.75 192 43.75H184.253C184.386 37.3761 189.594 32.25 196 32.25Z" stroke="#E2E0DF" stroke-width="0.5"/>
<path d="M112 128.25H119.747C119.614 134.624 114.406 139.75 108 139.75H100.253C100.386 133.376 105.594 128.25 112 128.25Z" stroke="#E2E0DF" stroke-width="0.5"/>
<path d="M250.75 8H251V8.25H259C265.765 8.25 271.25 2.76549 271.25 -4H271V-4.25H263C256.235 -4.25 250.75 1.23451 250.75 8Z" stroke="#E2E0DF" stroke-width="0.5"/>
<path d="M166.75 104H167V104.25H175C181.765 104.25 187.25 98.7655 187.25 92H187V91.75H179C172.235 91.75 166.75 97.2345 166.75 104Z" stroke="#E2E0DF" stroke-width="0.5"/>
<path d="M208.75 56H209V56.25H217C223.765 56.25 229.25 50.7655 229.25 44H229V43.75H221C214.235 43.75 208.75 49.2345 208.75 56Z" stroke="#E2E0DF" stroke-width="0.5"/>
<path d="M124.75 152H125V152.25H133C139.765 152.25 145.25 146.765 145.25 140H145V139.75H137C130.235 139.75 124.75 145.235 124.75 152Z" stroke="#E2E0DF" stroke-width="0.5"/>
<path d="M229.75 32H230V32.25H238C244.765 32.25 250.25 26.7655 250.25 20H250V19.75H242C235.235 19.75 229.75 25.2345 229.75 32Z" stroke="#E2E0DF" stroke-width="0.5"/>
<path d="M145.75 128H146V128.25H154C160.765 128.25 166.25 122.765 166.25 116H166V115.75H158C151.235 115.75 145.75 121.235 145.75 128Z" stroke="#E2E0DF" stroke-width="0.5"/>
<path d="M187.75 80H188V80.25H196C202.765 80.25 208.25 74.7655 208.25 68H208V67.75H200C193.235 67.75 187.75 73.2345 187.75 80Z" stroke="#E2E0DF" stroke-width="0.5"/>
<path d="M103.75 176H104V176.25H112C118.765 176.25 124.25 170.765 124.25 164H124V163.75H116C109.235 163.75 103.75 169.235 103.75 176Z" stroke="#E2E0DF" stroke-width="0.5"/>
<path d="M253 8.25H260.747C260.614 14.6239 255.406 19.75 249 19.75H241.253C241.386 13.3761 246.594 8.25 253 8.25Z" stroke="#E2E0DF" stroke-width="0.5"/>
<path d="M169 104.25H176.747C176.614 110.624 171.406 115.75 165 115.75H157.253C157.386 109.376 162.594 104.25 169 104.25Z" stroke="#E2E0DF" stroke-width="0.5"/>
<path d="M211 56.25H218.747C218.614 62.6239 213.406 67.75 207 67.75H199.253C199.386 61.3761 204.594 56.25 211 56.25Z" stroke="#E2E0DF" stroke-width="0.5"/>
<path d="M127 152.25H134.747C134.614 158.624 129.406 163.75 123 163.75H115.253C115.386 157.376 120.594 152.25 127 152.25Z" stroke="#E2E0DF" stroke-width="0.5"/>
<path d="M191 80.25H198.747C198.614 86.6239 193.406 91.75 187 91.75H179.253C179.386 85.3761 184.594 80.25 191 80.25Z" stroke="#E2E0DF" stroke-width="0.5"/>
<path d="M233 32.25H240.747C240.614 38.6239 235.406 43.75 229 43.75H221.253C221.386 37.3761 226.594 32.25 233 32.25Z" stroke="#E2E0DF" stroke-width="0.5"/>
<path d="M149 128.25H156.747C156.614 134.624 151.406 139.75 145 139.75H137.253C137.386 133.376 142.594 128.25 149 128.25Z" stroke="#E2E0DF" stroke-width="0.5"/>
<path d="M390.75 8H391V8.25H399C405.765 8.25 411.25 2.76549 411.25 -4H411V-4.25H403C396.235 -4.25 390.75 1.23451 390.75 8Z" stroke="#E2E0DF" stroke-width="0.5"/>
<path d="M306.75 104H307V104.25H315C321.765 104.25 327.25 98.7655 327.25 92H327V91.75H319C312.235 91.75 306.75 97.2345 306.75 104Z" stroke="#E2E0DF" stroke-width="0.5"/>
<path d="M348.75 56H349V56.25H357C363.765 56.25 369.25 50.7655 369.25 44H369V43.75H361C354.235 43.75 348.75 49.2345 348.75 56Z" stroke="#E2E0DF" stroke-width="0.5"/>
<path d="M264.75 152H265V152.25H273C279.765 152.25 285.25 146.765 285.25 140H285V139.75H277C270.235 139.75 264.75 145.235 264.75 152Z" stroke="#E2E0DF" stroke-width="0.5"/>
<path d="M369.75 32H370V32.25H378C384.765 32.25 390.25 26.7655 390.25 20H390V19.75H382C375.235 19.75 369.75 25.2345 369.75 32Z" stroke="#E2E0DF" stroke-width="0.5"/>
<path d="M285.75 128H286V128.25H294C300.765 128.25 306.25 122.765 306.25 116H306V115.75H298C291.235 115.75 285.75 121.235 285.75 128Z" stroke="#E2E0DF" stroke-width="0.5"/>
<path d="M327.75 80H328V80.25H336C342.765 80.25 348.25 74.7655 348.25 68H348V67.75H340C333.235 67.75 327.75 73.2345 327.75 80Z" stroke="#E2E0DF" stroke-width="0.5"/>
<path d="M243.75 176H244V176.25H252C258.765 176.25 264.25 170.765 264.25 164H264V163.75H256C249.235 163.75 243.75 169.235 243.75 176Z" stroke="#E2E0DF" stroke-width="0.5"/>
<path d="M393 8.25H400.747C400.614 14.6239 395.406 19.75 389 19.75H381.253C381.386 13.3761 386.594 8.25 393 8.25Z" stroke="#E2E0DF" stroke-width="0.5"/>
<path d="M309 104.25H316.747C316.614 110.624 311.406 115.75 305 115.75H297.253C297.386 109.376 302.594 104.25 309 104.25Z" stroke="#E2E0DF" stroke-width="0.5"/>
<path d="M351 56.25H358.747C358.614 62.6239 353.406 67.75 347 67.75H339.253C339.386 61.3761 344.594 56.25 351 56.25Z" stroke="#E2E0DF" stroke-width="0.5"/>
<path d="M267 152.25H274.747C274.614 158.624 269.406 163.75 263 163.75H255.253C255.386 157.376 260.594 152.25 267 152.25Z" stroke="#E2E0DF" stroke-width="0.5"/>
<path d="M331 80.25H338.747C338.614 86.6239 333.406 91.75 327 91.75H319.253C319.386 85.3761 324.594 80.25 331 80.25Z" stroke="#E2E0DF" stroke-width="0.5"/>
<path d="M373 32.25H380.747C380.614 38.6239 375.406 43.75 369 43.75H361.253C361.386 37.3761 366.594 32.25 373 32.25Z" stroke="#E2E0DF" stroke-width="0.5"/>
<path d="M289 128.25H296.747C296.614 134.624 291.406 139.75 285 139.75H277.253C277.386 133.376 282.594 128.25 289 128.25Z" stroke="#E2E0DF" stroke-width="0.5"/>
<path d="M285.75 8H286V8.25H294C300.765 8.25 306.25 2.76549 306.25 -4H306V-4.25H298C291.235 -4.25 285.75 1.23451 285.75 8Z" stroke="#E2E0DF" stroke-width="0.5"/>
<path d="M201.75 104H202V104.25H210C216.765 104.25 222.25 98.7655 222.25 92H222V91.75H214C207.235 91.75 201.75 97.2345 201.75 104Z" stroke="#E2E0DF" stroke-width="0.5"/>
<path d="M243.75 56H244V56.25H252C258.765 56.25 264.25 50.7655 264.25 44H264V43.75H256C249.235 43.75 243.75 49.2345 243.75 56Z" stroke="#E2E0DF" stroke-width="0.5"/>
<path d="M159.75 152H160V152.25H168C174.765 152.25 180.25 146.765 180.25 140H180V139.75H172C165.235 139.75 159.75 145.235 159.75 152Z" stroke="#E2E0DF" stroke-width="0.5"/>
<path d="M264.75 32H265V32.25H273C279.765 32.25 285.25 26.7655 285.25 20H285V19.75H277C270.235 19.75 264.75 25.2345 264.75 32Z" stroke="#E2E0DF" stroke-width="0.5"/>
<path d="M180.75 128H181V128.25H189C195.765 128.25 201.25 122.765 201.25 116H201V115.75H193C186.235 115.75 180.75 121.235 180.75 128Z" stroke="#E2E0DF" stroke-width="0.5"/>
<path d="M222.75 80H223V80.25H231C237.765 80.25 243.25 74.7655 243.25 68H243V67.75H235C228.235 67.75 222.75 73.2345 222.75 80Z" stroke="#E2E0DF" stroke-width="0.5"/>
<path d="M138.75 176H139V176.25H147C153.765 176.25 159.25 170.765 159.25 164H159V163.75H151C144.235 163.75 138.75 169.235 138.75 176Z" stroke="#E2E0DF" stroke-width="0.5"/>
<path d="M288 8.25H295.747C295.614 14.6239 290.406 19.75 284 19.75H276.253C276.386 13.3761 281.594 8.25 288 8.25Z" stroke="#E2E0DF" stroke-width="0.5"/>
<path d="M204 104.25H211.747C211.614 110.624 206.406 115.75 200 115.75H192.253C192.386 109.376 197.594 104.25 204 104.25Z" stroke="#E2E0DF" stroke-width="0.5"/>
<path d="M246 56.25H253.747C253.614 62.6239 248.406 67.75 242 67.75H234.253C234.386 61.3761 239.594 56.25 246 56.25Z" stroke="#E2E0DF" stroke-width="0.5"/>
<path d="M162 152.25H169.747C169.614 158.624 164.406 163.75 158 163.75H150.253C150.386 157.376 155.594 152.25 162 152.25Z" stroke="#E2E0DF" stroke-width="0.5"/>
<path d="M226 80.25H233.747C233.614 86.6239 228.406 91.75 222 91.75H214.253C214.386 85.3761 219.594 80.25 226 80.25Z" stroke="#E2E0DF" stroke-width="0.5"/>
<path d="M268 32.25H275.747C275.614 38.6239 270.406 43.75 264 43.75H256.253C256.386 37.3761 261.594 32.25 268 32.25Z" stroke="#E2E0DF" stroke-width="0.5"/>
<path d="M184 128.25H191.747C191.614 134.624 186.406 139.75 180 139.75H172.253C172.386 133.376 177.594 128.25 184 128.25Z" stroke="#E2E0DF" stroke-width="0.5"/>
<path d="M425.75 8H426V8.25H434C440.765 8.25 446.25 2.76549 446.25 -4H446V-4.25H438C431.235 -4.25 425.75 1.23451 425.75 8Z" stroke="#E2E0DF" stroke-width="0.5"/>
<path d="M341.75 104H342V104.25H350C356.765 104.25 362.25 98.7655 362.25 92H362V91.75H354C347.235 91.75 341.75 97.2345 341.75 104Z" stroke="#E2E0DF" stroke-width="0.5"/>
<path d="M383.75 56H384V56.25H392C398.765 56.25 404.25 50.7655 404.25 44H404V43.75H396C389.235 43.75 383.75 49.2345 383.75 56Z" stroke="#E2E0DF" stroke-width="0.5"/>
<path d="M299.75 152H300V152.25H308C314.765 152.25 320.25 146.765 320.25 140H320V139.75H312C305.235 139.75 299.75 145.235 299.75 152Z" stroke="#E2E0DF" stroke-width="0.5"/>
<path d="M404.75 32H405V32.25H413C419.765 32.25 425.25 26.7655 425.25 20H425V19.75H417C410.235 19.75 404.75 25.2345 404.75 32Z" stroke="#E2E0DF" stroke-width="0.5"/>
<path d="M320.75 128H321V128.25H329C335.765 128.25 341.25 122.765 341.25 116H341V115.75H333C326.235 115.75 320.75 121.235 320.75 128Z" stroke="#E2E0DF" stroke-width="0.5"/>
<path d="M362.75 80H363V80.25H371C377.765 80.25 383.25 74.7655 383.25 68H383V67.75H375C368.235 67.75 362.75 73.2345 362.75 80Z" stroke="#E2E0DF" stroke-width="0.5"/>
<path d="M278.75 176H279V176.25H287C293.765 176.25 299.25 170.765 299.25 164H299V163.75H291C284.235 163.75 278.75 169.235 278.75 176Z" stroke="#E2E0DF" stroke-width="0.5"/>
<path d="M428 8.25H435.747C435.614 14.6239 430.406 19.75 424 19.75H416.253C416.386 13.3761 421.594 8.25 428 8.25Z" stroke="#E2E0DF" stroke-width="0.5"/>
<path d="M344 104.25H351.747C351.614 110.624 346.406 115.75 340 115.75H332.253C332.386 109.376 337.594 104.25 344 104.25Z" stroke="#E2E0DF" stroke-width="0.5"/>
<path d="M386 56.25H393.747C393.614 62.6239 388.406 67.75 382 67.75H374.253C374.386 61.3761 379.594 56.25 386 56.25Z" stroke="#E2E0DF" stroke-width="0.5"/>
<path d="M302 152.25H309.747C309.614 158.624 304.406 163.75 298 163.75H290.253C290.386 157.376 295.594 152.25 302 152.25Z" stroke="#E2E0DF" stroke-width="0.5"/>
<path d="M366 80.25H373.747C373.614 86.6239 368.406 91.75 362 91.75H354.253C354.386 85.3761 359.594 80.25 366 80.25Z" stroke="#E2E0DF" stroke-width="0.5"/>
<path d="M408 32.25H415.747C415.614 38.6239 410.406 43.75 404 43.75H396.253C396.386 37.3761 401.594 32.25 408 32.25Z" stroke="#E2E0DF" stroke-width="0.5"/>
<path d="M324 128.25H331.747C331.614 134.624 326.406 139.75 320 139.75H312.253C312.386 133.376 317.594 128.25 324 128.25Z" stroke="#E2E0DF" stroke-width="0.5"/>
<path d="M320.75 8H321V8.25H329C335.765 8.25 341.25 2.76549 341.25 -4H341V-4.25H333C326.235 -4.25 320.75 1.23451 320.75 8Z" stroke="#E2E0DF" stroke-width="0.5"/>
<path d="M236.75 104H237V104.25H245C251.765 104.25 257.25 98.7655 257.25 92H257V91.75H249C242.235 91.75 236.75 97.2345 236.75 104Z" stroke="#E2E0DF" stroke-width="0.5"/>
<path d="M278.75 56H279V56.25H287C293.765 56.25 299.25 50.7655 299.25 44H299V43.75H291C284.235 43.75 278.75 49.2345 278.75 56Z" stroke="#E2E0DF" stroke-width="0.5"/>
<path d="M194.75 152H195V152.25H203C209.765 152.25 215.25 146.765 215.25 140H215V139.75H207C200.235 139.75 194.75 145.235 194.75 152Z" stroke="#E2E0DF" stroke-width="0.5"/>
<path d="M299.75 32H300V32.25H308C314.765 32.25 320.25 26.7655 320.25 20H320V19.75H312C305.235 19.75 299.75 25.2345 299.75 32Z" stroke="#E2E0DF" stroke-width="0.5"/>
<path d="M215.75 128H216V128.25H224C230.765 128.25 236.25 122.765 236.25 116H236V115.75H228C221.235 115.75 215.75 121.235 215.75 128Z" stroke="#E2E0DF" stroke-width="0.5"/>
<path d="M257.75 80H258V80.25H266C272.765 80.25 278.25 74.7655 278.25 68H278V67.75H270C263.235 67.75 257.75 73.2345 257.75 80Z" stroke="#E2E0DF" stroke-width="0.5"/>
<path d="M173.75 176H174V176.25H182C188.765 176.25 194.25 170.765 194.25 164H194V163.75H186C179.235 163.75 173.75 169.235 173.75 176Z" stroke="#E2E0DF" stroke-width="0.5"/>
<path d="M323 8.25H330.747C330.614 14.6239 325.406 19.75 319 19.75H311.253C311.386 13.3761 316.594 8.25 323 8.25Z" stroke="#E2E0DF" stroke-width="0.5"/>
<path d="M239 104.25H246.747C246.614 110.624 241.406 115.75 235 115.75H227.253C227.386 109.376 232.594 104.25 239 104.25Z" stroke="#E2E0DF" stroke-width="0.5"/>
<path d="M281 56.25H288.747C288.614 62.6239 283.406 67.75 277 67.75H269.253C269.386 61.3761 274.594 56.25 281 56.25Z" stroke="#E2E0DF" stroke-width="0.5"/>
<path d="M197 152.25H204.747C204.614 158.624 199.406 163.75 193 163.75H185.253C185.386 157.376 190.594 152.25 197 152.25Z" stroke="#E2E0DF" stroke-width="0.5"/>
<path d="M261 80.25H268.747C268.614 86.6239 263.406 91.75 257 91.75H249.253C249.386 85.3761 254.594 80.25 261 80.25Z" stroke="#E2E0DF" stroke-width="0.5"/>
<path d="M303 32.25H310.747C310.614 38.6239 305.406 43.75 299 43.75H291.253C291.386 37.3761 296.594 32.25 303 32.25Z" stroke="#E2E0DF" stroke-width="0.5"/>
<path d="M219 128.25H226.747C226.614 134.624 221.406 139.75 215 139.75H207.253C207.386 133.376 212.594 128.25 219 128.25Z" stroke="#E2E0DF" stroke-width="0.5"/>
<path d="M460.75 8H461V8.25H469C475.765 8.25 481.25 2.76549 481.25 -4H481V-4.25H473C466.235 -4.25 460.75 1.23451 460.75 8Z" stroke="#E2E0DF" stroke-width="0.5"/>
<path d="M376.75 104H377V104.25H385C391.765 104.25 397.25 98.7655 397.25 92H397V91.75H389C382.235 91.75 376.75 97.2345 376.75 104Z" stroke="#E2E0DF" stroke-width="0.5"/>
<path d="M418.75 56H419V56.25H427C433.765 56.25 439.25 50.7655 439.25 44H439V43.75H431C424.235 43.75 418.75 49.2345 418.75 56Z" stroke="#E2E0DF" stroke-width="0.5"/>
<path d="M334.75 152H335V152.25H343C349.765 152.25 355.25 146.765 355.25 140H355V139.75H347C340.235 139.75 334.75 145.235 334.75 152Z" stroke="#E2E0DF" stroke-width="0.5"/>
<path d="M439.75 32H440V32.25H448C454.765 32.25 460.25 26.7655 460.25 20H460V19.75H452C445.235 19.75 439.75 25.2345 439.75 32Z" stroke="#E2E0DF" stroke-width="0.5"/>
<path d="M355.75 128H356V128.25H364C370.765 128.25 376.25 122.765 376.25 116H376V115.75H368C361.235 115.75 355.75 121.235 355.75 128Z" stroke="#E2E0DF" stroke-width="0.5"/>
<path d="M397.75 80H398V80.25H406C412.765 80.25 418.25 74.7655 418.25 68H418V67.75H410C403.235 67.75 397.75 73.2345 397.75 80Z" stroke="#E2E0DF" stroke-width="0.5"/>
<path d="M313.75 176H314V176.25H322C328.765 176.25 334.25 170.765 334.25 164H334V163.75H326C319.235 163.75 313.75 169.235 313.75 176Z" stroke="#E2E0DF" stroke-width="0.5"/>
<path d="M463 8.25H470.747C470.614 14.6239 465.406 19.75 459 19.75H451.253C451.386 13.3761 456.594 8.25 463 8.25Z" stroke="#E2E0DF" stroke-width="0.5"/>
<path d="M379 104.25H386.747C386.614 110.624 381.406 115.75 375 115.75H367.253C367.386 109.376 372.594 104.25 379 104.25Z" stroke="#E2E0DF" stroke-width="0.5"/>
<path d="M421 56.25H428.747C428.614 62.6239 423.406 67.75 417 67.75H409.253C409.386 61.3761 414.594 56.25 421 56.25Z" stroke="#E2E0DF" stroke-width="0.5"/>
<path d="M337 152.25H344.747C344.614 158.624 339.406 163.75 333 163.75H325.253C325.386 157.376 330.594 152.25 337 152.25Z" stroke="#E2E0DF" stroke-width="0.5"/>
<path d="M401 80.25H408.747C408.614 86.6239 403.406 91.75 397 91.75H389.253C389.386 85.3761 394.594 80.25 401 80.25Z" stroke="#E2E0DF" stroke-width="0.5"/>
<path d="M443 32.25H450.747C450.614 38.6239 445.406 43.75 439 43.75H431.253C431.386 37.3761 436.594 32.25 443 32.25Z" stroke="#E2E0DF" stroke-width="0.5"/>
<path d="M359 128.25H366.747C366.614 134.624 361.406 139.75 355 139.75H347.253C347.386 133.376 352.594 128.25 359 128.25Z" stroke="#E2E0DF" stroke-width="0.5"/>
<path d="M355.75 8H356V8.25H364C370.765 8.25 376.25 2.76549 376.25 -4H376V-4.25H368C361.235 -4.25 355.75 1.23451 355.75 8Z" stroke="#E2E0DF" stroke-width="0.5"/>
<path d="M271.75 104H272V104.25H280C286.765 104.25 292.25 98.7655 292.25 92H292V91.75H284C277.235 91.75 271.75 97.2345 271.75 104Z" stroke="#E2E0DF" stroke-width="0.5"/>
<path d="M313.75 56H314V56.25H322C328.765 56.25 334.25 50.7655 334.25 44H334V43.75H326C319.235 43.75 313.75 49.2345 313.75 56Z" stroke="#E2E0DF" stroke-width="0.5"/>
<path d="M229.75 152H230V152.25H238C244.765 152.25 250.25 146.765 250.25 140H250V139.75H242C235.235 139.75 229.75 145.235 229.75 152Z" stroke="#E2E0DF" stroke-width="0.5"/>
<path d="M334.75 32H335V32.25H343C349.765 32.25 355.25 26.7655 355.25 20H355V19.75H347C340.235 19.75 334.75 25.2345 334.75 32Z" stroke="#E2E0DF" stroke-width="0.5"/>
<path d="M250.75 128H251V128.25H259C265.765 128.25 271.25 122.765 271.25 116H271V115.75H263C256.235 115.75 250.75 121.235 250.75 128Z" stroke="#E2E0DF" stroke-width="0.5"/>
<path d="M292.75 80H293V80.25H301C307.765 80.25 313.25 74.7655 313.25 68H313V67.75H305C298.235 67.75 292.75 73.2345 292.75 80Z" stroke="#E2E0DF" stroke-width="0.5"/>
<path d="M208.75 176H209V176.25H217C223.765 176.25 229.25 170.765 229.25 164H229V163.75H221C214.235 163.75 208.75 169.235 208.75 176Z" stroke="#E2E0DF" stroke-width="0.5"/>
<path d="M358 8.25H365.747C365.614 14.6239 360.406 19.75 354 19.75H346.253C346.386 13.3761 351.594 8.25 358 8.25Z" stroke="#E2E0DF" stroke-width="0.5"/>
<path d="M274 104.25H281.747C281.614 110.624 276.406 115.75 270 115.75H262.253C262.386 109.376 267.594 104.25 274 104.25Z" stroke="#E2E0DF" stroke-width="0.5"/>
<path d="M316 56.25H323.747C323.614 62.6239 318.406 67.75 312 67.75H304.253C304.386 61.3761 309.594 56.25 316 56.25Z" stroke="#E2E0DF" stroke-width="0.5"/>
<path d="M232 152.25H239.747C239.614 158.624 234.406 163.75 228 163.75H220.253C220.386 157.376 225.594 152.25 232 152.25Z" stroke="#E2E0DF" stroke-width="0.5"/>
<path d="M296 80.25H303.747C303.614 86.6239 298.406 91.75 292 91.75H284.253C284.386 85.3761 289.594 80.25 296 80.25Z" stroke="#E2E0DF" stroke-width="0.5"/>
<path d="M338 32.25H345.747C345.614 38.6239 340.406 43.75 334 43.75H326.253C326.386 37.3761 331.594 32.25 338 32.25Z" stroke="#E2E0DF" stroke-width="0.5"/>
<path d="M254 128.25H261.747C261.614 134.624 256.406 139.75 250 139.75H242.253C242.386 133.376 247.594 128.25 254 128.25Z" stroke="#E2E0DF" stroke-width="0.5"/>
<path d="M411.75 104H412V104.25H420C426.765 104.25 432.25 98.7655 432.25 92H432V91.75H424C417.235 91.75 411.75 97.2345 411.75 104Z" stroke="#E2E0DF" stroke-width="0.5"/>
<path d="M453.75 56H454V56.25H462C468.765 56.25 474.25 50.7655 474.25 44H474V43.75H466C459.235 43.75 453.75 49.2345 453.75 56Z" stroke="#E2E0DF" stroke-width="0.5"/>
<path d="M369.75 152H370V152.25H378C384.765 152.25 390.25 146.765 390.25 140H390V139.75H382C375.235 139.75 369.75 145.235 369.75 152Z" stroke="#E2E0DF" stroke-width="0.5"/>
<path d="M390.75 128H391V128.25H399C405.765 128.25 411.25 122.765 411.25 116H411V115.75H403C396.235 115.75 390.75 121.235 390.75 128Z" stroke="#E2E0DF" stroke-width="0.5"/>
<path d="M432.75 80H433V80.25H441C447.765 80.25 453.25 74.7655 453.25 68H453V67.75H445C438.235 67.75 432.75 73.2345 432.75 80Z" stroke="#E2E0DF" stroke-width="0.5"/>
<path d="M348.75 176H349V176.25H357C363.765 176.25 369.25 170.765 369.25 164H369V163.75H361C354.235 163.75 348.75 169.235 348.75 176Z" stroke="#E2E0DF" stroke-width="0.5"/>
<path d="M414 104.25H421.747C421.614 110.624 416.406 115.75 410 115.75H402.253C402.386 109.376 407.594 104.25 414 104.25Z" stroke="#E2E0DF" stroke-width="0.5"/>
<path d="M456 56.25H463.747C463.614 62.6239 458.406 67.75 452 67.75H444.253C444.386 61.3761 449.594 56.25 456 56.25Z" stroke="#E2E0DF" stroke-width="0.5"/>
<path d="M372 152.25H379.747C379.614 158.624 374.406 163.75 368 163.75H360.253C360.386 157.376 365.594 152.25 372 152.25Z" stroke="#E2E0DF" stroke-width="0.5"/>
<path d="M436 80.25H443.747C443.614 86.6239 438.406 91.75 432 91.75H424.253C424.386 85.3761 429.594 80.25 436 80.25Z" stroke="#E2E0DF" stroke-width="0.5"/>
<path d="M478 32.25H485.747C485.614 38.6239 480.406 43.75 474 43.75H466.253C466.386 37.3761 471.594 32.25 478 32.25Z" stroke="#E2E0DF" stroke-width="0.5"/>
<path d="M394 128.25H401.747C401.614 134.624 396.406 139.75 390 139.75H382.253C382.386 133.376 387.594 128.25 394 128.25Z" stroke="#E2E0DF" stroke-width="0.5"/>
<path d="M444.75 104H445V104.25H453C459.765 104.25 465.25 98.7655 465.25 92H465V91.75H457C450.235 91.75 444.75 97.2345 444.75 104Z" stroke="#E2E0DF" stroke-width="0.5"/>
<path d="M402.75 152H403V152.25H411C417.765 152.25 423.25 146.765 423.25 140H423V139.75H415C408.235 139.75 402.75 145.235 402.75 152Z" stroke="#E2E0DF" stroke-width="0.5"/>
<path d="M423.75 128H424V128.25H432C438.765 128.25 444.25 122.765 444.25 116H444V115.75H436C429.235 115.75 423.75 121.235 423.75 128Z" stroke="#E2E0DF" stroke-width="0.5"/>
<path d="M465.75 80H466V80.25H474C480.765 80.25 486.25 74.7655 486.25 68H486V67.75H478C471.235 67.75 465.75 73.2345 465.75 80Z" stroke="#E2E0DF" stroke-width="0.5"/>
<path d="M381.75 176H382V176.25H390C396.765 176.25 402.25 170.765 402.25 164H402V163.75H394C387.235 163.75 381.75 169.235 381.75 176Z" stroke="#E2E0DF" stroke-width="0.5"/>
<path d="M447 104.25H454.747C454.614 110.624 449.406 115.75 443 115.75H435.253C435.386 109.376 440.594 104.25 447 104.25Z" stroke="#E2E0DF" stroke-width="0.5"/>
<path d="M405 152.25H412.747C412.614 158.624 407.406 163.75 401 163.75H393.253C393.386 157.376 398.594 152.25 405 152.25Z" stroke="#E2E0DF" stroke-width="0.5"/>
<path d="M469 80.25H476.747C476.614 86.6239 471.406 91.75 465 91.75H457.253C457.386 85.3761 462.594 80.25 469 80.25Z" stroke="#E2E0DF" stroke-width="0.5"/>
<path d="M427 128.25H434.747C434.614 134.624 429.406 139.75 423 139.75H415.253C415.386 133.376 420.594 128.25 427 128.25Z" stroke="#E2E0DF" stroke-width="0.5"/>
<path d="M435.75 152H436V152.25H444C450.765 152.25 456.25 146.765 456.25 140H456V139.75H448C441.235 139.75 435.75 145.235 435.75 152Z" stroke="#E2E0DF" stroke-width="0.5"/>
<path d="M456.75 128H457V128.25H465C471.765 128.25 477.25 122.765 477.25 116H477V115.75H469C462.235 115.75 456.75 121.235 456.75 128Z" stroke="#E2E0DF" stroke-width="0.5"/>
<path d="M414.75 176H415V176.25H423C429.765 176.25 435.25 170.765 435.25 164H435V163.75H427C420.235 163.75 414.75 169.235 414.75 176Z" stroke="#E2E0DF" stroke-width="0.5"/>
<path d="M480 104.25H487.747C487.614 110.624 482.406 115.75 476 115.75H468.253C468.386 109.376 473.594 104.25 480 104.25Z" stroke="#E2E0DF" stroke-width="0.5"/>
<path d="M438 152.25H445.747C445.614 158.624 440.406 163.75 434 163.75H426.253C426.386 157.376 431.594 152.25 438 152.25Z" stroke="#E2E0DF" stroke-width="0.5"/>
<path d="M460 128.25H467.747C467.614 134.624 462.406 139.75 456 139.75H448.253C448.386 133.376 453.594 128.25 460 128.25Z" stroke="#E2E0DF" stroke-width="0.5"/>
</g>
</g>
</g>
<defs>
<clipPath id="clip0_1568_27260">
<rect width="474" height="164" fill="white"/>
</clipPath>
</defs>
</svg>
