<svg width="30" height="30" viewBox="0 0 30 30" fill="none" xmlns="http://www.w3.org/2000/svg">
<path d="M26.34 16.9682V18.1682C26.34 18.4922 26.088 18.7562 25.752 18.7682H24C23.364 18.7682 22.788 18.3002 22.74 17.6762C22.704 17.3042 22.848 16.9562 23.088 16.7162C23.304 16.4882 23.604 16.3682 23.928 16.3682H25.74C26.088 16.3802 26.34 16.6442 26.34 16.9682Z" fill="#EE5C20"/>
<path d="M22.188 15.8282C21.588 16.4162 21.3 17.2922 21.54 18.2042C21.852 19.3202 22.944 20.0282 24.096 20.0282H25.14C25.8 20.0282 26.34 20.5682 26.34 21.2282V21.4562C26.34 23.9402 24.312 25.9682 21.828 25.9682H8.05201C5.56801 25.9682 3.54001 23.9402 3.54001 21.4562V13.3802C3.54001 11.9042 4.24801 10.5962 5.34001 9.78016C6.09601 9.20416 7.03201 8.86816 8.05201 8.86816H21.828C24.312 8.86816 26.34 10.8962 26.34 13.3802V13.9082C26.34 14.5682 25.8 15.1082 25.14 15.1082H23.916C23.244 15.1082 22.632 15.3722 22.188 15.8282Z" fill="#EE5C20"/>
<path d="M20.04 6.384C20.364 6.708 20.088 7.212 19.632 7.212L10.416 7.2C9.88802 7.2 9.61202 6.552 9.99602 6.18L11.94 4.224C13.584 2.592 16.248 2.592 17.892 4.224L19.992 6.348C20.004 6.36 20.028 6.372 20.04 6.384Z" fill="#EE5C20"/>
</svg>
