<svg width="30" height="30" viewBox="0 0 30 30" fill="none" xmlns="http://www.w3.org/2000/svg">
<path d="M24.012 7.62L16.884 3.504C15.72 2.832 14.28 2.832 13.104 3.504L5.988 7.62C4.824 8.292 4.104 9.54 4.104 10.896V19.104C4.104 20.448 4.824 21.696 5.988 22.38L13.116 26.496C14.28 27.168 15.72 27.168 16.896 26.496L24.024 22.38C25.188 21.708 25.908 20.46 25.908 19.104V10.896C25.896 9.54 25.176 8.304 24.012 7.62ZM14.1 9.9C14.1 9.408 14.508 9 15 9C15.492 9 15.9 9.408 15.9 9.9V16.2C15.9 16.692 15.492 17.1 15 17.1C14.508 17.1 14.1 16.692 14.1 16.2V9.9ZM16.104 20.556C16.044 20.7 15.96 20.832 15.852 20.952C15.624 21.18 15.324 21.3 15 21.3C14.844 21.3 14.688 21.264 14.544 21.204C14.388 21.144 14.268 21.06 14.148 20.952C14.04 20.832 13.956 20.7 13.884 20.556C13.824 20.412 13.8 20.256 13.8 20.1C13.8 19.788 13.92 19.476 14.148 19.248C14.268 19.14 14.388 19.056 14.544 18.996C14.988 18.804 15.516 18.912 15.852 19.248C15.96 19.368 16.044 19.488 16.104 19.644C16.164 19.788 16.2 19.944 16.2 20.1C16.2 20.256 16.164 20.412 16.104 20.556Z" fill="#EE5C20"/>
</svg>
