<svg width="48" height="48" viewBox="0 0 48 48" fill="none" xmlns="http://www.w3.org/2000/svg">
<rect width="48" height="48" rx="8" fill="#FAF9EF"/>
<path d="M32.2717 24.6881C32.085 24.6881 31.8983 24.6298 31.735 24.5015C27.0333 20.8731 20.955 20.8731 16.2533 24.5015C15.8683 24.7931 15.32 24.7231 15.0283 24.3498C14.7367 23.9648 14.8067 23.4165 15.18 23.1248C20.535 18.9831 27.4533 18.9831 32.7967 23.1248C33.1817 23.4165 33.2517 23.9648 32.9483 24.3498C32.7967 24.5715 32.54 24.6881 32.2717 24.6881Z" fill="#F1CD0C"/>
<path d="M35.6667 20.6281C35.48 20.6281 35.2933 20.5698 35.13 20.4415C28.3633 15.2148 19.625 15.2148 12.87 20.4415C12.485 20.7331 11.9367 20.6631 11.645 20.2898C11.3417 19.9165 11.4117 19.3565 11.7967 19.0648C19.205 13.3365 28.7833 13.3365 36.2033 19.0648C36.5883 19.3565 36.6583 19.9048 36.355 20.2898C36.1917 20.5115 35.9233 20.6281 35.6667 20.6281Z" fill="#F1CD0C"/>
<path d="M30.0784 28.9465C29.8917 28.9465 29.705 28.8882 29.5417 28.7598C26.1817 26.1582 21.83 26.1582 18.4584 28.7598C18.0734 29.0515 17.525 28.9815 17.2334 28.6082C16.9417 28.2232 17.0117 27.6748 17.385 27.3832C21.3984 24.2798 26.59 24.2798 30.6034 27.3832C30.9884 27.6748 31.0584 28.2232 30.755 28.6082C30.5917 28.8298 30.335 28.9465 30.0784 28.9465Z" fill="#F1CD0C"/>
<path d="M27.0333 33.2169C26.8467 33.2169 26.66 33.1586 26.4967 33.0302C24.98 31.8519 23.0083 31.8519 21.4917 33.0302C21.1067 33.3219 20.5583 33.2519 20.2667 32.8786C19.975 32.4936 20.045 31.9452 20.4183 31.6536C22.5883 29.9736 25.3883 29.9736 27.5583 31.6536C27.9433 31.9452 28.0133 32.4936 27.71 32.8786C27.5583 33.0886 27.3017 33.2169 27.0333 33.2169Z" fill="#F1CD0C"/>
</svg>
