<svg width="120" height="34" viewBox="0 0 120 34" fill="none" xmlns="http://www.w3.org/2000/svg">
<path d="M3.65026 33.5641V15.7359H0V10.4615H3.65026V8.63077C3.65026 7.78803 3.76615 6.87265 3.99791 5.88461C4.22967 4.89658 4.63526 3.95214 5.21466 3.05128C5.82304 2.15043 6.66318 1.42393 7.73508 0.871794C8.80699 0.290598 10.1831 0 11.8634 0C12.7904 0 13.5436 0.0726495 14.123 0.217948C14.7314 0.334188 15.0356 0.392308 15.0356 0.392308V5.05641C15.0356 5.05641 14.8618 5.02735 14.5141 4.96923C14.1665 4.91111 13.8044 4.88205 13.4278 4.88205C12.24 4.88205 11.4143 5.23077 10.9508 5.92821C10.4873 6.62564 10.2555 7.5265 10.2555 8.63077V10.4615H14.9052V15.7359H10.2555V33.5641H3.65026Z" fill="#EE5C20"/>
<path d="M19.1717 33.5641V0.435897H25.7769V33.5641H19.1717Z" fill="#EE5C20"/>
<path d="M42.4737 34C40.4458 34 38.6931 33.6658 37.2156 32.9974C35.7381 32.3 34.5213 31.3846 33.5653 30.2513C32.6093 29.0889 31.885 27.7957 31.3925 26.3718C30.929 24.9479 30.6973 23.4803 30.6973 21.9692C30.6973 20.5162 30.9145 19.0923 31.3491 17.6974C31.8126 16.2735 32.5079 14.9803 33.435 13.8179C34.391 12.6556 35.5932 11.7402 37.0418 11.0718C38.5192 10.3744 40.2575 10.0256 42.2564 10.0256C44.3713 10.0256 46.2398 10.4906 47.8622 11.4205C49.5135 12.3504 50.8027 13.7308 51.7297 15.5615C52.6568 17.3632 53.1203 19.5573 53.1203 22.1436V23.7564H37.3459C37.4329 25.1513 37.9109 26.3573 38.78 27.3744C39.6781 28.3915 40.9093 28.9 42.4737 28.9C43.3718 28.9 44.096 28.7692 44.6465 28.5077C45.2259 28.2171 45.6749 27.8974 45.9936 27.5487C46.3123 27.1709 46.5295 26.8368 46.6454 26.5462C46.7613 26.2556 46.8192 26.1103 46.8192 26.1103H52.903C52.903 26.1103 52.8306 26.3863 52.6857 26.9385C52.5699 27.4615 52.3091 28.1154 51.9035 28.9C51.498 29.6846 50.9041 30.4692 50.1219 31.2538C49.3686 32.0385 48.3692 32.6923 47.1234 33.2154C45.8777 33.7385 44.3278 34 42.4737 34ZM37.3459 19.7462H46.7758C46.6889 18.1479 46.2109 16.9564 45.3418 16.1718C44.4727 15.3872 43.4007 14.9949 42.1261 14.9949C40.8514 14.9949 39.765 15.4162 38.8669 16.259C37.9688 17.0726 37.4618 18.235 37.3459 19.7462Z" fill="#EE5C20"/>
<path d="M55.7663 33.5641L62.7627 22.0564L55.7663 10.4615H62.6323L67.1951 18.0897L71.8449 10.4615H78.7108L71.4538 22.0564L78.6674 33.5641H71.8449L67.1951 25.9359L62.6758 33.5641H55.7663Z" fill="#EE5C20"/>
<path d="M83.4732 33.5641V1.30769H96.5099C98.8855 1.30769 100.913 1.72906 102.594 2.5718C104.303 3.41453 105.607 4.57692 106.505 6.05897C107.432 7.54103 107.895 9.25556 107.895 11.2026C107.895 13.3239 107.359 15.1838 106.287 16.7821C105.215 18.3513 103.695 19.4991 101.725 20.2256L108.721 33.5641H101.29L94.902 21.141H90.1654V33.5641H83.4732ZM96.423 7.10513H90.1654V15.6487H96.423C97.9005 15.6487 99.0593 15.2419 99.8994 14.4282C100.74 13.6145 101.16 12.612 101.16 11.4205C101.16 10.2 100.74 9.18291 99.8994 8.36923C99.0593 7.52649 97.9005 7.10513 96.423 7.10513Z" fill="#1A1F1C"/>
<path d="M116.306 34C115.205 34 114.307 33.6368 113.612 32.9103C112.917 32.1547 112.569 31.2829 112.569 30.2949C112.569 29.2487 112.917 28.3624 113.612 27.6359C114.307 26.9094 115.205 26.5462 116.306 26.5462C117.349 26.5462 118.218 26.9094 118.914 27.6359C119.638 28.3624 120 29.2487 120 30.2949C120 31.312 119.638 32.1838 118.914 32.9103C118.218 33.6368 117.349 34 116.306 34Z" fill="#1A1F1C"/>
</svg>
