<?xml version="1.0" standalone="no"?>
<!DOCTYPE svg PUBLIC "-//W3C//DTD SVG 20010904//EN"
 "http://www.w3.org/TR/2001/REC-SVG-20010904/DTD/svg10.dtd">
<svg version="1.0" xmlns="http://www.w3.org/2000/svg"
 width="716.000000pt" height="205.000000pt" viewBox="0 0 716.000000 205.000000"
 preserveAspectRatio="xMidYMid meet">

<g transform="translate(0.000000,205.000000) scale(0.100000,-0.100000)"
fill="#000000" stroke="none">
<path d="M845 1999 c-158 -21 -315 -77 -422 -150 -71 -48 -180 -156 -225 -223
-98 -143 -153 -311 -165 -496 -21 -366 199 -641 560 -700 104 -17 295 -12 407
10 170 32 240 78 276 177 15 43 18 99 6 107 -5 3 -30 -6 -58 -19 -156 -74
-359 -73 -508 2 -27 14 -67 37 -88 50 l-37 25 -96 -23 c-125 -30 -127 -28 -96
94 22 89 22 93 5 137 -25 66 -30 263 -10 360 47 223 224 408 441 460 27 6 88
11 135 11 47 0 108 -5 135 -11 88 -22 191 -77 259 -140 l63 -59 20 22 c62 67
70 165 20 231 -35 45 -148 101 -244 121 -93 19 -289 26 -378 14z"/>
<path d="M1692 1940 c-18 -11 -39 -35 -47 -52 -9 -19 -49 -293 -95 -653 -44
-341 -85 -657 -91 -703 -6 -46 -9 -86 -6 -89 3 -2 36 0 73 6 47 7 81 19 109
39 77 54 77 54 150 617 36 281 75 574 85 652 11 79 20 152 20 162 0 41 -141
56 -198 21z"/>
<path d="M4320 1953 c-19 -7 -59 -43 -70 -63 -11 -22 -195 -1439 -187 -1447
15 -14 142 17 181 44 66 47 81 91 111 323 30 235 42 287 85 351 55 84 139 123
260 123 125 -1 190 -49 206 -151 6 -39 -36 -417 -73 -656 l-6 -39 59 7 c105
13 158 45 195 118 27 52 93 555 85 644 -11 128 -84 227 -204 275 -50 20 -74
23 -192 23 -149 -1 -195 -13 -287 -76 -24 -17 -46 -29 -48 -27 -2 1 12 118 31
258 18 140 34 260 34 267 0 24 -133 43 -180 26z"/>
<path d="M2325 1493 c-288 -61 -495 -320 -495 -617 0 -227 121 -384 337 -440
115 -30 352 -14 465 31 71 28 102 103 78 188 -10 36 -16 45 -29 39 -109 -47
-151 -57 -257 -62 -134 -5 -200 10 -261 62 -56 49 -75 101 -75 206 1 183 84
329 224 389 150 66 328 12 328 -98 0 -64 -23 -99 -84 -127 -66 -30 -134 -42
-256 -46 l-95 -3 -3 -35 c-4 -46 31 -99 82 -124 35 -17 46 -18 141 -7 299 34
438 131 461 323 13 113 -47 223 -153 281 -102 55 -263 71 -408 40z"/>
<path d="M3421 1499 c-243 -48 -418 -209 -490 -454 -15 -50 -141 -945 -141
-1000 0 -3 22 -5 49 -5 90 0 155 35 196 103 21 38 30 86 70 402 70 546 67 536
155 629 71 75 150 110 250 109 117 0 200 -45 245 -132 48 -96 42 -212 -18
-324 -57 -108 -165 -178 -289 -185 -61 -4 -97 3 -170 33 -13 5 -17 -2 -23 -33
-18 -110 4 -175 72 -207 30 -15 55 -17 137 -12 157 8 277 59 389 165 76 73
125 148 158 245 107 309 -26 586 -317 662 -63 16 -201 18 -273 4z"/>
<path d="M5710 1495 c-89 -20 -214 -84 -281 -144 -192 -171 -268 -466 -174
-676 31 -70 119 -164 187 -198 93 -47 168 -60 308 -55 171 7 264 30 312 77 45
46 56 93 35 153 -8 24 -18 42 -23 41 -5 -1 -43 -14 -84 -29 -100 -36 -258 -45
-346 -19 -86 25 -147 88 -164 169 -23 111 6 258 69 350 40 57 83 93 151 125
75 34 194 35 258 2 116 -60 83 -202 -59 -246 -32 -10 -107 -20 -184 -24 l-130
-6 2 -40 c3 -43 24 -77 67 -109 35 -26 128 -27 260 -2 173 33 272 91 324 190
24 45 27 62 27 147 0 89 -2 99 -30 144 -36 58 -103 109 -182 137 -77 27 -251
34 -343 13z"/>
<path d="M6704 1496 c-179 -41 -305 -162 -343 -331 -9 -39 -80 -572 -93 -695
-3 -24 0 -25 42 -23 25 1 59 5 76 8 45 8 119 77 138 128 8 23 27 136 41 252
33 263 51 329 105 383 23 23 58 47 78 54 59 21 197 15 262 -10 30 -12 56 -22
58 -22 1 0 16 21 32 47 43 68 42 121 -5 161 -19 17 -51 36 -72 42 -60 19 -249
22 -319 6z"/>
<path d="M653 1315 c-102 -44 -70 -195 42 -195 113 0 144 152 40 196 -41 17
-42 17 -82 -1z"/>
<path d="M913 1315 c-68 -29 -80 -120 -22 -169 65 -55 155 -22 166 61 7 52
-14 89 -62 109 -41 17 -42 17 -82 -1z"/>
<path d="M1173 1314 c-39 -20 -67 -74 -58 -114 17 -76 120 -106 176 -51 80 81
-16 215 -118 165z"/>
</g>
</svg>
